QuasarOpen-MASTER-900.ufo
<glyph name="exclam" format="2">
  <advance width="404"/>
  <unicode hex="0021"/>
  <outline>
    <contour>
      <point x="100.0" y="92.0" type="curve" smooth="yes"/>
      <point x="100.0" y="148.0"/>
      <point x="146.0" y="194.0"/>
      <point x="202.0" y="194.0" type="curve" smooth="yes"/>
      <point x="258.0" y="194.0"/>
      <point x="304.0" y="148.0"/>
      <point x="304.0" y="92.0" type="curve" smooth="yes"/>
      <point x="304.0" y="36.0"/>
      <point x="258.0" y="-10.0"/>
      <point x="202.0" y="-10.0" type="curve" smooth="yes"/>
      <point x="146.0" y="-10.0"/>
      <point x="100.0" y="36.0"/>
    </contour>
    <contour>
      <point x="114.0" y="828.0" type="line"/>
      <point x="289.0" y="828.0" type="line"/>
      <point x="289.0" y="273.0" type="line"/>
      <point x="114.0" y="273.0" type="line"/>
    </contour>
  </outline>
</glyph>
<glyph name="comma" format="2">
  <advance width="404"/>
  <unicode hex="002C"/>
  <outline>
    <contour>
      <point x="100.0" y="92.0" type="curve" smooth="yes"/>
      <point x="100.0" y="148.0"/>
      <point x="146.0" y="194.0"/>
      <point x="202.0" y="194.0" type="curve" smooth="yes"/>
      <point x="258.0" y="194.0"/>
      <point x="309.0" y="150.0"/>
      <point x="309.0" y="52.0" type="curve" smooth="yes"/>
      <point x="309.0" y="-60.0"/>
      <point x="248.0" y="-132.0"/>
      <point x="202.0" y="-132.0" type="curve"/>
      <point x="202.0" y="-10.0" type="line"/>
      <point x="146.0" y="-10.0"/>
      <point x="100.0" y="36.0"/>
    </contour>
  </outline>
</glyph>
<glyph name="hyphen" format="2">
  <advance width="471"/>
  <unicode hex="002D"/>
  <outline>
    <contour>
      <point x="60.0" y="340.0" type="line"/>
      <point x="405.0" y="340.0" type="line"/>
      <point x="405.0" y="172.0" type="line"/>
      <point x="60.0" y="172.0" type="line"/>
    </contour>
  </outline>
</glyph>
<glyph name="uni002E" format="2">
  <advance width="404"/>
  <unicode hex="002E"/>
  <outline>
    <contour>
      <point x="100.0" y="92.0" type="curve" smooth="yes"/>
      <point x="100.0" y="148.0"/>
      <point x="146.0" y="194.0"/>
      <point x="202.0" y="194.0" type="curve" smooth="yes"/>
      <point x="258.0" y="194.0"/>
      <point x="304.0" y="148.0"/>
      <point x="304.0" y="92.0" type="curve" smooth="yes"/>
      <point x="304.0" y="36.0"/>
      <point x="258.0" y="-10.0"/>
      <point x="202.0" y="-10.0" type="curve" smooth="yes"/>
      <point x="146.0" y="-10.0"/>
      <point x="100.0" y="36.0"/>
    </contour>
  </outline>
</glyph>
<glyph name="zero" format="2">
  <advance width="640"/>
  <unicode hex="0030"/>
  <outline>
    <contour>
      <point x="320.0" y="663.0" type="curve" smooth="yes"/>
      <point x="269.0" y="663.0"/>
      <point x="235.0" y="621.0"/>
      <point x="235.0" y="578.0" type="curve" smooth="yes"/>
      <point x="235.0" y="250.0" type="line" smooth="yes"/>
      <point x="235.0" y="207.0"/>
      <point x="269.0" y="165.0"/>
      <point x="320.0" y="165.0" type="curve" smooth="yes"/>
      <point x="371.0" y="165.0"/>
      <point x="405.0" y="207.0"/>
      <point x="405.0" y="250.0" type="curve" smooth="yes"/>
      <point x="405.0" y="578.0" type="line" smooth="yes"/>
      <point x="405.0" y="621.0"/>
      <point x="371.0" y="663.0"/>
    </contour>
    <contour>
      <point x="320.0" y="838.0" type="curve" smooth="yes"/>
      <point x="473.0" y="838.0"/>
      <point x="580.0" y="716.006835938"/>
      <point x="580.0" y="578.0" type="curve" smooth="yes"/>
      <point x="580.0" y="250.0" type="line" smooth="yes"/>
      <point x="580.0" y="111.0"/>
      <point x="473.0" y="-10.0"/>
      <point x="320.0" y="-10.0" type="curve" smooth="yes"/>
      <point x="170.0" y="-10.0"/>
      <point x="60.0" y="109.0"/>
      <point x="60.0" y="250.0" type="curve" smooth="yes"/>
      <point x="60.0" y="578.0" type="line" smooth="yes"/>
      <point x="60.0" y="719.00390625"/>
      <point x="169.0" y="838.0"/>
    </contour>
  </outline>
</glyph>
<glyph name="two" format="2">
  <advance width="600"/>
  <unicode hex="0032"/>
  <outline>
    <contour>
      <point x="561.0" y="0.0" type="line" smooth="yes"/>
      <point x="105.0" y="0.0" type="line" smooth="yes"/>
      <point x="105.0" y="207.0" type="line" smooth="yes"/>
      <point x="105.0" y="351.0"/>
      <point x="167.789271931" y="448.757854386"/>
      <point x="309.0" y="477.0" type="curve" smooth="yes"/>
      <point x="369.0" y="489.0"/>
      <point x="381.0" y="537.0"/>
      <point x="381.0" y="581.0" type="curve" smooth="yes"/>
      <point x="381.0" y="620.293945312"/>
      <point x="354.0" y="670.0"/>
      <point x="288.0" y="670.0" type="curve" smooth="yes"/>
      <point x="231.990234375" y="670.0"/>
      <point x="184.0" y="658.0"/>
      <point x="136.0" y="625.0" type="curve"/>
      <point x="136.0" y="793.0" type="line"/>
      <point x="167.0" y="815.0"/>
      <point x="215.0" y="838.0"/>
      <point x="288.0" y="838.0" type="curve" smooth="yes"/>
      <point x="440.0" y="838.0"/>
      <point x="556.0" y="713.0"/>
      <point x="556.0" y="579.0" type="curve" smooth="yes"/>
      <point x="556.0" y="435.0"/>
      <point x="469.306640625" y="349.076171875"/>
      <point x="344.0" y="321.0" type="curve" smooth="yes"/>
      <point x="303.766097111" y="311.985202643"/>
      <point x="280.0" y="277.0"/>
      <point x="280.0" y="209.0" type="curve" smooth="yes"/>
      <point x="280.0" y="175.0" type="line" smooth="yes"/>
      <point x="561.0" y="175.0" type="line" smooth="yes"/>
    </contour>
  </outline>
</glyph>
<glyph name="four" format="2">
  <advance width="672"/>
  <unicode hex="0034"/>
  <outline>
    <contour>
      <point x="45.0" y="420.0" type="line"/>
      <point x="527.0" y="420.0" type="line"/>
      <point x="527.0" y="250.0" type="line"/>
      <point x="45.0" y="250.0" type="line"/>
    </contour>
    <contour>
      <point x="437.0" y="828.0" type="line"/>
      <point x="612.0" y="828.0" type="line"/>
      <point x="612.0" y="0.0" type="line"/>
      <point x="437.0" y="0.0" type="line"/>
    </contour>
    <contour>
      <point x="152.0" y="828.0" type="line"/>
      <point x="327.0" y="828.0" type="line"/>
      <point x="327.0" y="501.0" type="line" smooth="yes"/>
      <point x="327.0" y="347.075195312"/>
      <point x="199.689453125" y="315.0"/>
      <point x="45.0" y="315.0" type="curve"/>
      <point x="45.0" y="420.0" type="line"/>
      <point x="112.553710938" y="420.0"/>
      <point x="152.0" y="453.0"/>
      <point x="152.0" y="505.0" type="curve" smooth="yes"/>
    </contour>
  </outline>
</glyph>
<glyph name="five" format="2">
  <advance width="420"/>
  <unicode hex="0035"/>
  <outline>
    <contour>
      <point x="60.0" y="828.0" type="line"/>
      <point x="379.0" y="828.0" type="line"/>
      <point x="379.0" y="663.0" type="line"/>
      <point x="235.0" y="663.0" type="line"/>
      <point x="235.0" y="403.0" type="line"/>
      <point x="60.0" y="403.0" type="line"/>
    </contour>
    <contour>
      <point x="108.0" y="165.0" type="curve" smooth="yes"/>
      <point x="174.0" y="165.0"/>
      <point x="206.0" y="207.0"/>
      <point x="206.0" y="250.0" type="curve" smooth="yes"/>
      <point x="206.0" y="293.0"/>
      <point x="174.0078125" y="335.0"/>
      <point x="108.0" y="335.0" type="curve" smooth="yes"/>
      <point x="90.970703125" y="335.0"/>
      <point x="76.0" y="333.0"/>
      <point x="60.0" y="328.0" type="curve"/>
      <point x="60.0" y="503.0" type="line"/>
      <point x="76.0" y="507.0"/>
      <point x="97.0" y="510.0"/>
      <point x="121.0" y="510.0" type="curve" smooth="yes"/>
      <point x="272.0" y="510.0"/>
      <point x="381.0" y="391.00390625"/>
      <point x="381.0" y="250.0" type="curve" smooth="yes"/>
      <point x="381.0" y="109.0"/>
      <point x="271.0" y="-10.0"/>
      <point x="121.0" y="-10.0" type="curve" smooth="yes"/>
      <point x="97.0" y="-10.0"/>
      <point x="76.0" y="-7.0"/>
      <point x="60.0" y="-3.0" type="curve"/>
      <point x="60.0" y="172.0" type="line"/>
      <point x="76.0" y="167.0"/>
      <point x="91.0" y="165.0"/>
    </contour>
  </outline>
</glyph>
<glyph name="seven" format="2">
  <advance width="530"/>
  <unicode hex="0037"/>
  <outline>
    <contour>
      <point x="55.0" y="828.0" type="line"/>
      <point x="470.0" y="828.0" type="line"/>
      <point x="470.0" y="0.0" type="line"/>
      <point x="295.0" y="0.0" type="line"/>
      <point x="295.0" y="653.0" type="line"/>
      <point x="55.0" y="653.0" type="line"/>
    </contour>
  </outline>
</glyph>
<glyph name="eight" format="2">
  <advance width="615"/>
  <unicode hex="0038"/>
  <outline>
    <contour>
      <point x="380.0" y="580.0" type="curve" smooth="yes"/>
      <point x="380.0" y="624.0"/>
      <point x="344.0" y="660.0"/>
      <point x="300.0" y="660.0" type="curve" smooth="yes"/>
      <point x="256.0" y="660.0"/>
      <point x="220.0" y="624.0"/>
      <point x="220.0" y="580.0" type="curve" smooth="yes"/>
      <point x="220.0" y="536.0"/>
      <point x="256.0" y="500.0"/>
      <point x="300.0" y="500.0" type="curve" smooth="yes"/>
      <point x="344.0" y="500.0"/>
      <point x="380.0" y="536.0"/>
    </contour>
    <contour>
      <point x="555.0" y="585.0" type="curve" smooth="yes"/>
      <point x="555.0" y="444.0"/>
      <point x="426.0" y="370.0"/>
      <point x="300.0" y="370.0" type="curve" smooth="yes"/>
      <point x="174.0" y="370.0"/>
      <point x="45.0" y="444.0"/>
      <point x="45.0" y="585.0" type="curve" smooth="yes"/>
      <point x="45.0" y="719.0"/>
      <point x="159.0" y="838.0"/>
      <point x="300.0" y="838.0" type="curve" smooth="yes"/>
      <point x="441.0" y="838.0"/>
      <point x="555.0" y="719.0"/>
    </contour>
    <contour>
      <point x="220.0" y="245.0" type="curve" smooth="yes"/>
      <point x="220.0" y="201.0"/>
      <point x="256.0" y="165.0"/>
      <point x="300.0" y="165.0" type="curve" smooth="yes"/>
      <point x="344.0" y="165.0"/>
      <point x="380.0" y="201.0"/>
      <point x="380.0" y="245.0" type="curve" smooth="yes"/>
      <point x="380.0" y="289.0"/>
      <point x="344.0" y="325.0"/>
      <point x="300.0" y="325.0" type="curve" smooth="yes"/>
      <point x="256.0" y="325.0"/>
      <point x="220.0" y="289.0"/>
    </contour>
    <contour>
      <point x="45.0" y="240.0" type="curve" smooth="yes"/>
      <point x="45.0" y="381.0"/>
      <point x="174.0" y="455.0"/>
      <point x="300.0" y="455.0" type="curve" smooth="yes"/>
      <point x="426.0" y="455.0"/>
      <point x="555.0" y="381.0"/>
      <point x="555.0" y="240.0" type="curve" smooth="yes"/>
      <point x="555.0" y="106.0"/>
      <point x="441.0" y="-10.0"/>
      <point x="300.0" y="-10.0" type="curve" smooth="yes"/>
      <point x="159.0" y="-10.0"/>
      <point x="45.0" y="106.0"/>
    </contour>
  </outline>
</glyph>
<glyph name="question" format="2">
  <advance width="590"/>
  <unicode hex="003F"/>
  <outline>
    <contour>
      <point x="181.0" y="92.25" type="curve" smooth="yes"/>
      <point x="181.0" y="148.25"/>
      <point x="227.0" y="194.25"/>
      <point x="283.0" y="194.25" type="curve" smooth="yes"/>
      <point x="339.0" y="194.25"/>
      <point x="385.0" y="148.25"/>
      <point x="385.0" y="92.25" type="curve" smooth="yes"/>
      <point x="385.0" y="36.25"/>
      <point x="339.0" y="-9.75"/>
      <point x="283.0" y="-9.75" type="curve" smooth="yes"/>
      <point x="227.0" y="-9.75"/>
      <point x="181.0" y="36.25"/>
    </contour>
    <contour>
      <point x="195.0" y="493.0" type="line"/>
      <point x="370.0" y="493.0" type="line"/>
      <point x="370.0" y="273.0" type="line"/>
      <point x="195.0" y="273.0" type="line"/>
    </contour>
    <contour>
      <point x="282.0" y="493.0" type="line" smooth="yes"/>
      <point x="333.0" y="493.0"/>
      <point x="367.0" y="535.0"/>
      <point x="367.0" y="578.0" type="curve" smooth="yes"/>
      <point x="367.0" y="621.0"/>
      <point x="333.0" y="663.0"/>
      <point x="282.0" y="663.0" type="curve" smooth="yes"/>
      <point x="231.0" y="663.0"/>
      <point x="197.0" y="621.0"/>
      <point x="197.0" y="578.0" type="curve" smooth="yes"/>
      <point x="22.0" y="578.0" type="line" smooth="yes"/>
      <point x="22.0" y="719.00390625"/>
      <point x="131.0" y="838.0"/>
      <point x="282.0" y="838.0" type="curve" smooth="yes"/>
      <point x="435.0" y="838.0"/>
      <point x="542.0" y="716.006835938"/>
      <point x="542.0" y="578.0" type="curve" smooth="yes"/>
      <point x="542.0" y="439.0"/>
      <point x="435.0" y="318.0"/>
      <point x="282.0" y="318.0" type="curve" smooth="yes"/>
    </contour>
  </outline>
</glyph>
<glyph name="uni003F" format="2">
  <advance width="488"/>
  <unicode hex="003F"/>
  <outline>
    <contour>
      <point x="109.0" y="92.25" type="curve" smooth="yes"/>
      <point x="109.0" y="148.25"/>
      <point x="155.0" y="194.25"/>
      <point x="211.0" y="194.25" type="curve" smooth="yes"/>
      <point x="267.0" y="194.25"/>
      <point x="313.0" y="148.25"/>
      <point x="313.0" y="92.25" type="curve" smooth="yes"/>
      <point x="313.0" y="36.25"/>
      <point x="267.0" y="-9.75"/>
      <point x="211.0" y="-9.75" type="curve" smooth="yes"/>
      <point x="155.0" y="-9.75"/>
      <point x="109.0" y="36.25"/>
    </contour>
    <contour>
      <point x="123.0" y="497.0" type="line"/>
      <point x="298.0" y="497.0" type="line"/>
      <point x="298.0" y="273.0" type="line"/>
      <point x="123.0" y="273.0" type="line"/>
    </contour>
    <contour>
      <point x="444.0" y="582.0" type="curve" smooth="yes"/>
      <point x="444.0" y="440.99609375"/>
      <point x="335.0" y="322.0"/>
      <point x="184.0" y="322.0" type="curve" smooth="yes"/>
      <point x="160.0" y="322.0"/>
      <point x="139.0" y="325.0"/>
      <point x="123.0" y="329.0" type="curve"/>
      <point x="123.0" y="504.0" type="line"/>
      <point x="139.0" y="499.0"/>
      <point x="153.970703125" y="497.0"/>
      <point x="171.0" y="497.0" type="curve" smooth="yes"/>
      <point x="237.0078125" y="497.0"/>
      <point x="269.0" y="539.0"/>
      <point x="269.0" y="582.0" type="curve" smooth="yes"/>
      <point x="269.0" y="634.0"/>
      <point x="229.553710938" y="663.0"/>
      <point x="162.0" y="663.0" type="curve" smooth="yes"/>
      <point x="126.989257812" y="663.0"/>
      <point x="100.0" y="655.0"/>
      <point x="58.0" y="628.0" type="curve"/>
      <point x="58.0" y="807.0" type="line"/>
      <point x="100.0" y="828.0"/>
      <point x="138.0" y="838.0"/>
      <point x="184.0" y="838.0" type="curve" smooth="yes"/>
      <point x="328.00390625" y="838.0"/>
      <point x="444.0" y="726.0"/>
    </contour>
  </outline>
</glyph>
<glyph name="a" format="2">
  <advance width="640"/>
  <unicode hex="0061"/>
  <outline>
    <contour>
      <point x="300.0" y="335.0" type="curve" smooth="yes"/>
      <point x="247.0" y="335.0"/>
      <point x="215.0" y="295.0"/>
      <point x="215.0" y="250.0" type="curve" smooth="yes"/>
      <point x="215.0" y="205.0"/>
      <point x="247.0" y="165.0"/>
      <point x="300.0" y="165.0" type="curve" smooth="yes"/>
      <point x="316.019857621" y="165.0"/>
      <point x="330.121113391" y="168.654479718"/>
      <point x="342.0" y="174.996906812" type="curve"/>
      <point x="342.0" y="-7.16691441279" type="line"/>
      <point x="328.494104234" y="-9.03381894443"/>
      <point x="314.4822962" y="-10.0"/>
      <point x="300.0" y="-10.0" type="curve" smooth="yes"/>
      <point x="146.0" y="-10.0"/>
      <point x="40.0" y="105.0"/>
      <point x="40.0" y="250.0" type="curve" smooth="yes"/>
      <point x="40.0" y="395.0"/>
      <point x="146.0" y="510.0"/>
      <point x="300.0" y="510.0" type="curve" smooth="yes"/>
      <point x="436.0" y="510.0"/>
      <point x="560.0" y="420.0"/>
      <point x="560.0" y="238.0" type="curve" smooth="yes"/>
      <point x="560.0" y="0.0" type="line"/>
      <point x="385.0" y="0.0" type="line"/>
      <point x="385.0" y="236.0" type="line" smooth="yes"/>
      <point x="385.0" y="319.0"/>
      <point x="333.0" y="335.0"/>
    </contour>
  </outline>
</glyph>
<glyph name="c" format="2">
  <advance width="401"/>
  <unicode hex="0063"/>
  <outline>
    <contour>
      <point x="313.0" y="165.0" type="curve" smooth="yes"/>
      <point x="330.0" y="165.0"/>
      <point x="345.0" y="167.0"/>
      <point x="361.0" y="172.0" type="curve"/>
      <point x="361.0" y="-3.0" type="line"/>
      <point x="345.0" y="-7.0"/>
      <point x="324.0" y="-10.0"/>
      <point x="300.0" y="-10.0" type="curve" smooth="yes"/>
      <point x="150.0" y="-10.0"/>
      <point x="40.0" y="109.0"/>
      <point x="40.0" y="250.0" type="curve" smooth="yes"/>
      <point x="40.0" y="391.003448235"/>
      <point x="149.0" y="510.0"/>
      <point x="300.0" y="510.0" type="curve" smooth="yes"/>
      <point x="324.0" y="510.0"/>
      <point x="345.0" y="507.0"/>
      <point x="361.0" y="503.0" type="curve"/>
      <point x="361.0" y="328.0" type="line"/>
      <point x="345.0" y="333.0"/>
      <point x="330.029386366" y="335.0"/>
      <point x="313.0" y="335.0" type="curve" smooth="yes"/>
      <point x="246.992424677" y="335.0"/>
      <point x="215.0" y="293.0"/>
      <point x="215.0" y="250.0" type="curve" smooth="yes"/>
      <point x="215.0" y="207.0"/>
      <point x="247.0" y="165.0"/>
    </contour>
  </outline>
</glyph>
<glyph name="uni0063" format="2">
  <advance width="420"/>
  <unicode hex="0063"/>
  <outline>
    <contour>
      <point x="312.0" y="165.0" type="curve" smooth="yes"/>
      <point x="329.0" y="165.0"/>
      <point x="344.0" y="167.0"/>
      <point x="360.0" y="172.0" type="curve"/>
      <point x="360.0" y="-3.0" type="line"/>
      <point x="344.0" y="-7.0"/>
      <point x="323.0" y="-10.0"/>
      <point x="299.0" y="-10.0" type="curve" smooth="yes"/>
      <point x="149.0" y="-10.0"/>
      <point x="39.0" y="109.0"/>
      <point x="39.0" y="250.0" type="curve" smooth="yes"/>
      <point x="39.0" y="391.00390625"/>
      <point x="148.0" y="510.0"/>
      <point x="299.0" y="510.0" type="curve" smooth="yes"/>
      <point x="323.0" y="510.0"/>
      <point x="344.0" y="507.0"/>
      <point x="360.0" y="503.0" type="curve"/>
      <point x="360.0" y="328.0" type="line"/>
      <point x="344.0" y="333.0"/>
      <point x="329.029296875" y="335.0"/>
      <point x="312.0" y="335.0" type="curve" smooth="yes"/>
      <point x="245.9921875" y="335.0"/>
      <point x="214.0" y="293.0"/>
      <point x="214.0" y="250.0" type="curve" smooth="yes"/>
      <point x="214.0" y="207.0"/>
      <point x="246.0" y="165.0"/>
    </contour>
  </outline>
</glyph>
<glyph name="e" format="2">
  <advance width="615"/>
  <unicode hex="0065"/>
  <outline>
    <contour>
      <point x="295.0" y="175.0" type="curve" smooth="yes"/>
      <point x="555.0" y="175.0" type="line"/>
      <point x="555.0" y="0.0" type="line"/>
      <point x="295.0" y="0.0" type="line" smooth="yes"/>
      <point x="145.0" y="0.0"/>
      <point x="35.0" y="109.0"/>
      <point x="35.0" y="250.0" type="curve" smooth="yes"/>
      <point x="35.0" y="391.0"/>
      <point x="144.0" y="510.0"/>
      <point x="295.0" y="510.0" type="curve" smooth="yes"/>
      <point x="448.0" y="510.0"/>
      <point x="555.0" y="388.0"/>
      <point x="555.0" y="250.0" type="curve" smooth="yes"/>
      <point x="555.0" y="239.0"/>
      <point x="554.0" y="229.0"/>
      <point x="553.0" y="218.0" type="curve"/>
      <point x="374.0" y="218.0" type="line"/>
      <point x="378.0" y="228.0"/>
      <point x="380.0" y="239.0"/>
      <point x="380.0" y="250.0" type="curve" smooth="yes"/>
      <point x="380.0" y="293.0"/>
      <point x="346.0" y="335.0"/>
      <point x="295.0" y="335.0" type="curve" smooth="yes"/>
      <point x="244.0" y="335.0"/>
      <point x="210.0" y="293.0"/>
      <point x="210.0" y="255.0" type="curve" smooth="yes"/>
      <point x="210.0" y="217.0"/>
      <point x="244.0" y="175.0"/>
    </contour>
  </outline>
</glyph>
<glyph name="uni0065" format="2">
  <advance width="619"/>
  <unicode hex="0065"/>
  <outline>
    <contour>
      <point x="299.0" y="175.0" type="curve" smooth="yes"/>
      <point x="559.0" y="175.0" type="line"/>
      <point x="559.0" y="0.0" type="line"/>
      <point x="299.0" y="0.0" type="line" smooth="yes"/>
      <point x="149.0" y="0.0"/>
      <point x="39.0" y="109.0"/>
      <point x="39.0" y="250.0" type="curve" smooth="yes"/>
      <point x="39.0" y="391.0"/>
      <point x="148.0" y="510.0"/>
      <point x="299.0" y="510.0" type="curve" smooth="yes"/>
      <point x="452.0" y="510.0"/>
      <point x="559.0" y="388.0"/>
      <point x="559.0" y="250.0" type="curve" smooth="yes"/>
      <point x="559.0" y="239.0"/>
      <point x="558.0" y="229.0"/>
      <point x="557.0" y="218.0" type="curve"/>
      <point x="378.0" y="218.0" type="line"/>
      <point x="382.0" y="228.0"/>
      <point x="384.0" y="239.0"/>
      <point x="384.0" y="250.0" type="curve" smooth="yes"/>
      <point x="384.0" y="293.0"/>
      <point x="350.0" y="335.0"/>
      <point x="299.0" y="335.0" type="curve" smooth="yes"/>
      <point x="248.0" y="335.0"/>
      <point x="214.0" y="293.0"/>
      <point x="214.0" y="255.0" type="curve" smooth="yes"/>
      <point x="214.0" y="217.0"/>
      <point x="248.0" y="175.0"/>
    </contour>
  </outline>
</glyph>
<glyph name="f" format="2">
  <advance width="421"/>
  <unicode hex="0066"/>
  <outline>
    <contour>
      <point x="340.0" y="838.0" type="curve" smooth="yes"/>
      <point x="364.0" y="838.0"/>
      <point x="385.0" y="835.0"/>
      <point x="401.0" y="831.0" type="curve"/>
      <point x="401.0" y="656.0" type="line"/>
      <point x="386.0" y="661.0"/>
      <point x="368.0" y="663.0"/>
      <point x="355.0" y="663.0" type="curve" smooth="yes"/>
      <point x="275.991210938" y="663.0"/>
      <point x="255.0" y="611.0"/>
      <point x="255.0" y="578.0" type="curve" smooth="yes"/>
      <point x="255.0" y="500.0" type="line"/>
      <point x="392.0" y="500.0" type="line"/>
      <point x="392.0" y="332.0" type="line"/>
      <point x="255.0" y="332.0" type="line"/>
      <point x="255.0" y="0.0" type="line"/>
      <point x="80.0" y="0.0" type="line"/>
      <point x="80.0" y="578.0" type="line" smooth="yes"/>
      <point x="80.0" y="726.0"/>
      <point x="195.99609375" y="838.0"/>
    </contour>
  </outline>
</glyph>
<glyph name="uni0066" format="2">
  <advance width="441"/>
  <unicode hex="0066"/>
  <outline>
    <contour>
      <point x="320.0" y="838.0" type="curve" smooth="yes"/>
      <point x="344.0" y="838.0"/>
      <point x="365.0" y="835.0"/>
      <point x="381.0" y="831.0" type="curve"/>
      <point x="381.0" y="656.0" type="line"/>
      <point x="365.0" y="661.0"/>
      <point x="349.0" y="663.0"/>
      <point x="335.0" y="663.0" type="curve" smooth="yes"/>
      <point x="287.447265625" y="663.0"/>
      <point x="235.0" y="630.0"/>
      <point x="235.0" y="558.0" type="curve" smooth="yes"/>
      <point x="235.0" y="500.0" type="line"/>
      <point x="376.0" y="500.0" type="line"/>
      <point x="376.0" y="332.0" type="line"/>
      <point x="235.0" y="332.0" type="line"/>
      <point x="235.0" y="0.0" type="line"/>
      <point x="60.0" y="0.0" type="line"/>
      <point x="60.0" y="578.0" type="line" smooth="yes"/>
      <point x="60.0" y="726.0"/>
      <point x="175.99609375" y="838.0"/>
    </contour>
  </outline>
</glyph>
<glyph name="g" format="2">
  <advance width="596"/>
  <unicode hex="0067"/>
  <outline>
    <contour>
      <point x="215.0" y="-97.0" type="curve" smooth="yes"/>
      <point x="215.0" y="-143.0"/>
      <point x="252.0" y="-180.0"/>
      <point x="298.0" y="-180.0" type="curve" smooth="yes"/>
      <point x="344.0" y="-180.0"/>
      <point x="381.0" y="-143.0"/>
      <point x="381.0" y="-97.0" type="curve" smooth="yes"/>
      <point x="381.0" y="-51.0"/>
      <point x="344.0" y="-15.0"/>
      <point x="298.0" y="-15.0" type="curve" smooth="yes"/>
      <point x="252.0" y="-15.0"/>
      <point x="215.0" y="-51.0"/>
    </contour>
    <contour>
      <point x="40.0" y="-97.0" type="curve" smooth="yes"/>
      <point x="40.0" y="45.0"/>
      <point x="156.0" y="160.0"/>
      <point x="298.0" y="160.0" type="curve" smooth="yes"/>
      <point x="440.0" y="160.0"/>
      <point x="556.0" y="45.0"/>
      <point x="556.0" y="-97.0" type="curve" smooth="yes"/>
      <point x="556.0" y="-239.0"/>
      <point x="440.0" y="-355.0"/>
      <point x="298.0" y="-355.0" type="curve" smooth="yes"/>
      <point x="156.0" y="-355.0"/>
      <point x="40.0" y="-239.0"/>
    </contour>
    <contour>
      <point x="552.887695312" y="282.0" type="line"/>
      <point x="554.936523438" y="268.958007812"/>
      <point x="556.0" y="255.59765625"/>
      <point x="556.0" y="242.0" type="curve" smooth="yes"/>
      <point x="556.0" y="100.0"/>
      <point x="440.0" y="-15.0"/>
      <point x="298.0" y="-15.0" type="curve" smooth="yes"/>
      <point x="156.0" y="-15.0"/>
      <point x="40.0" y="100.0"/>
      <point x="40.0" y="242.0" type="curve" smooth="yes"/>
      <point x="40.0" y="384.0"/>
      <point x="156.0" y="500.0"/>
      <point x="298.0" y="500.0" type="curve" smooth="yes"/>
      <point x="556.0" y="500.0" type="line"/>
      <point x="556.0" y="325.0" type="line"/>
      <point x="298.0" y="325.0" type="line" smooth="yes"/>
      <point x="252.0" y="325.0"/>
      <point x="215.0" y="288.0"/>
      <point x="215.0" y="242.0" type="curve" smooth="yes"/>
      <point x="215.0" y="196.0"/>
      <point x="252.0" y="160.0"/>
      <point x="298.0" y="160.0" type="curve" smooth="yes"/>
      <point x="344.0" y="160.0"/>
      <point x="381.0" y="196.0"/>
      <point x="381.0" y="242.0" type="curve" smooth="yes"/>
      <point x="381.0" y="256.524414062"/>
      <point x="377.311523438" y="270.151367188"/>
      <point x="370.815429688" y="282.0" type="curve"/>
    </contour>
  </outline>
</glyph>
<glyph name="uni0067" format="2">
  <advance width="615"/>
  <unicode hex="0067"/>
  <outline>
    <contour>
      <point x="220.0" y="-83.0" type="curve" smooth="yes"/>
      <point x="220.0" y="-127.0"/>
      <point x="256.0" y="-163.0"/>
      <point x="300.0" y="-163.0" type="curve" smooth="yes"/>
      <point x="344.0" y="-163.0"/>
      <point x="380.0" y="-127.0"/>
      <point x="380.0" y="-83.0" type="curve" smooth="yes"/>
      <point x="380.0" y="-39.0"/>
      <point x="344.0" y="-3.0"/>
      <point x="300.0" y="-3.0" type="curve" smooth="yes"/>
      <point x="256.0" y="-3.0"/>
      <point x="220.0" y="-39.0"/>
    </contour>
    <contour>
      <point x="45.0" y="-88.0" type="curve" smooth="yes"/>
      <point x="45.0" y="53.0"/>
      <point x="174.0" y="127.0"/>
      <point x="300.0" y="127.0" type="curve" smooth="yes"/>
      <point x="426.0" y="127.0"/>
      <point x="555.0" y="53.0"/>
      <point x="555.0" y="-88.0" type="curve" smooth="yes"/>
      <point x="555.0" y="-222.0"/>
      <point x="441.0" y="-338.0"/>
      <point x="300.0" y="-338.0" type="curve" smooth="yes"/>
      <point x="159.0" y="-338.0"/>
      <point x="45.0" y="-222.0"/>
    </contour>
    <contour>
      <point x="300.0" y="332.0" type="line" smooth="yes"/>
      <point x="260.0" y="332.0"/>
      <point x="220.0" y="300.0"/>
      <point x="220.0" y="252.0" type="curve" smooth="yes"/>
      <point x="220.0" y="208.0"/>
      <point x="256.0" y="172.0"/>
      <point x="300.0" y="172.0" type="curve" smooth="yes"/>
      <point x="344.0" y="172.0"/>
      <point x="380.0" y="208.0"/>
      <point x="380.0" y="252.0" type="curve" smooth="yes"/>
      <point x="380.0" y="265.0"/>
      <point x="377.0" y="278.0"/>
      <point x="371.0" y="289.0" type="curve"/>
      <point x="551.0" y="289.0" type="line"/>
      <point x="553.0" y="275.0"/>
      <point x="555.0" y="260.0"/>
      <point x="555.0" y="245.0" type="curve" smooth="yes"/>
      <point x="555.0" y="104.0"/>
      <point x="426.0" y="35.0"/>
      <point x="300.0" y="35.0" type="curve" smooth="yes"/>
      <point x="174.0" y="35.0"/>
      <point x="45.0" y="109.0"/>
      <point x="45.0" y="250.0" type="curve" smooth="yes"/>
      <point x="45.0" y="384.0"/>
      <point x="159.0" y="500.0"/>
      <point x="300.0" y="500.0" type="curve" smooth="yes"/>
      <point x="555.0" y="500.0" type="line"/>
      <point x="555.0" y="332.0" type="line"/>
    </contour>
  </outline>
</glyph>
<glyph name="h" format="2">
  <advance width="610"/>
  <unicode hex="0068"/>
  <outline>
    <contour>
      <point x="70.0" y="828.0" type="line"/>
      <point x="245.0" y="828.0" type="line"/>
      <point x="245.0" y="0.0" type="line"/>
      <point x="70.0" y="0.0" type="line"/>
    </contour>
    <contour>
      <point x="180.0" y="270.0" type="line" smooth="yes"/>
      <point x="180.0" y="399.0"/>
      <point x="216.0" y="510.0"/>
      <point x="330.0" y="510.0" type="curve" smooth="yes"/>
      <point x="454.0" y="510.0"/>
      <point x="540.0" y="419.0"/>
      <point x="540.0" y="270.0" type="curve" smooth="yes"/>
      <point x="540.0" y="0.0" type="line"/>
      <point x="365.0" y="0.0" type="line"/>
      <point x="365.0" y="270.0" type="line" smooth="yes"/>
      <point x="365.0" y="313.0"/>
      <point x="338.0" y="335.0"/>
      <point x="305.0" y="335.0" type="curve" smooth="yes"/>
      <point x="272.0" y="335.0"/>
      <point x="245.0" y="313.0"/>
      <point x="245.0" y="270.0" type="curve" smooth="yes"/>
      <point x="245.0" y="210.0" type="line"/>
      <point x="180.0" y="210.0" type="line"/>
    </contour>
  </outline>
</glyph>
<glyph name="i" format="2">
  <advance width="335"/>
  <unicode hex="0069"/>
  <outline>
    <contour>
      <point x="68.0" y="669.0" type="curve" smooth="yes"/>
      <point x="68.0" y="724.0"/>
      <point x="113.0" y="769.0"/>
      <point x="168.0" y="769.0" type="curve" smooth="yes"/>
      <point x="223.0" y="769.0"/>
      <point x="268.0" y="724.0"/>
      <point x="268.0" y="669.0" type="curve" smooth="yes"/>
      <point x="268.0" y="614.0"/>
      <point x="223.0" y="569.0"/>
      <point x="168.0" y="569.0" type="curve" smooth="yes"/>
      <point x="113.0" y="569.0"/>
      <point x="68.0" y="614.0"/>
    </contour>
    <contour>
      <point x="80.0" y="500.0" type="line"/>
      <point x="255.0" y="500.0" type="line"/>
      <point x="255.0" y="0.0" type="line"/>
      <point x="80.0" y="0.0" type="line"/>
    </contour>
  </outline>
</glyph>
<glyph name="uni0069" format="2">
  <advance width="295"/>
  <unicode hex="0069"/>
  <outline>
    <contour>
      <point x="48.0" y="679.0" type="curve" smooth="yes"/>
      <point x="48.0" y="734.0"/>
      <point x="93.0" y="779.0"/>
      <point x="148.0" y="779.0" type="curve" smooth="yes"/>
      <point x="203.0" y="779.0"/>
      <point x="248.0" y="734.0"/>
      <point x="248.0" y="679.0" type="curve" smooth="yes"/>
      <point x="248.0" y="624.0"/>
      <point x="203.0" y="579.0"/>
      <point x="148.0" y="579.0" type="curve" smooth="yes"/>
      <point x="93.0" y="579.0"/>
      <point x="48.0" y="624.0"/>
    </contour>
    <contour>
      <point x="60.0" y="500.0" type="line"/>
      <point x="235.0" y="500.0" type="line"/>
      <point x="235.0" y="0.0" type="line"/>
      <point x="60.0" y="0.0" type="line"/>
    </contour>
  </outline>
</glyph>
<glyph name="j" format="2">
  <advance width="410"/>
  <unicode hex="006A"/>
  <outline>
    <contour>
      <point x="143.0" y="679.0" type="curve" smooth="yes"/>
      <point x="143.0" y="734.0"/>
      <point x="188.0" y="779.0"/>
      <point x="243.0" y="779.0" type="curve" smooth="yes"/>
      <point x="298.0" y="779.0"/>
      <point x="343.0" y="734.0"/>
      <point x="343.0" y="679.0" type="curve" smooth="yes"/>
      <point x="343.0" y="624.0"/>
      <point x="298.0" y="579.0"/>
      <point x="243.0" y="579.0" type="curve" smooth="yes"/>
      <point x="188.0" y="579.0"/>
      <point x="143.0" y="624.0"/>
    </contour>
    <contour>
      <point x="156.0" y="500.0" type="line"/>
      <point x="331.0" y="500.0" type="line"/>
      <point x="331.0" y="-78.0" type="line" smooth="yes"/>
      <point x="331.0" y="-226.0"/>
      <point x="215.00390625" y="-338.0"/>
      <point x="71.0" y="-338.0" type="curve" smooth="yes"/>
      <point x="47.0" y="-338.0"/>
      <point x="26.0" y="-335.0"/>
      <point x="10.0" y="-331.0" type="curve"/>
      <point x="10.0" y="-156.0" type="line"/>
      <point x="25.0" y="-161.0"/>
      <point x="43.0" y="-163.0"/>
      <point x="56.0" y="-163.0" type="curve" smooth="yes"/>
      <point x="135.008789062" y="-163.0"/>
      <point x="156.0" y="-111.0"/>
      <point x="156.0" y="-78.0" type="curve" smooth="yes"/>
    </contour>
  </outline>
</glyph>
<glyph name="k" format="2">
  <advance width="641"/>
  <unicode hex="006B"/>
  <outline>
    <contour>
      <point x="306.0" y="210.0" type="curve"/>
      <point x="232.0" y="210.0" type="line"/>
      <point x="232.0" y="342.0" type="line"/>
      <point x="306.0" y="342.0" type="line"/>
      <point x="354.0" y="342.0"/>
      <point x="396.0" y="387.0"/>
      <point x="396.0" y="430.0" type="curve" smooth="yes"/>
      <point x="396.0" y="500.0" type="line"/>
      <point x="571.0" y="500.0" type="line"/>
      <point x="571.0" y="430.0" type="line" smooth="yes"/>
      <point x="571.0" y="281.0"/>
      <point x="438.0" y="210.0"/>
    </contour>
    <contour>
      <point x="306.0" y="305.0" type="line"/>
      <point x="438.0" y="305.0"/>
      <point x="571.0" y="234.0"/>
      <point x="571.0" y="85.0" type="curve" smooth="yes"/>
      <point x="571.0" y="0.0" type="line"/>
      <point x="396.0" y="0.0" type="line"/>
      <point x="396.0" y="85.0" type="line" smooth="yes"/>
      <point x="396.0" y="128.0"/>
      <point x="354.0" y="173.0"/>
      <point x="306.0" y="173.0" type="curve"/>
      <point x="232.0" y="173.0" type="line"/>
      <point x="232.0" y="305.0" type="line"/>
    </contour>
    <contour>
      <point x="80.0" y="828.0" type="line"/>
      <point x="255.0" y="828.0" type="line"/>
      <point x="255.0" y="0.0" type="line"/>
      <point x="80.0" y="0.0" type="line"/>
    </contour>
  </outline>
</glyph>
<glyph name="l" format="2">
  <advance width="335"/>
  <unicode hex="006C"/>
  <outline>
    <contour>
      <point x="80.0" y="828.0" type="line"/>
      <point x="255.0" y="828.0" type="line"/>
      <point x="255.0" y="0.0" type="line"/>
      <point x="80.0" y="0.0" type="line"/>
    </contour>
  </outline>
</glyph>
<glyph name="uni006C" format="2">
  <advance width="295"/>
  <unicode hex="006C"/>
  <outline>
    <contour>
      <point x="60.0" y="828.0" type="line"/>
      <point x="235.0" y="828.0" type="line"/>
      <point x="235.0" y="0.0" type="line"/>
      <point x="60.0" y="0.0" type="line"/>
    </contour>
  </outline>
</glyph>
<glyph name="m" format="2">
  <advance width="897"/>
  <unicode hex="006D"/>
  <outline>
    <contour>
      <point x="417.0" y="270.0" type="line" smooth="yes"/>
      <point x="417.0" y="419.0"/>
      <point x="488.0" y="510.0"/>
      <point x="622.0" y="510.0" type="curve" smooth="yes"/>
      <point x="726.0" y="510.0"/>
      <point x="827.0" y="419.0"/>
      <point x="827.0" y="270.0" type="curve" smooth="yes"/>
      <point x="827.0" y="0.0" type="line"/>
      <point x="652.0" y="0.0" type="line"/>
      <point x="652.0" y="270.0" type="line" smooth="yes"/>
      <point x="652.0" y="313.0"/>
      <point x="622.0" y="335.0"/>
      <point x="592.0" y="335.0" type="curve" smooth="yes"/>
      <point x="562.0" y="335.0"/>
      <point x="532.0" y="313.0"/>
      <point x="532.0" y="270.0" type="curve" smooth="yes"/>
      <point x="532.0" y="0.0" type="line"/>
      <point x="417.0" y="0.0" type="line"/>
    </contour>
    <contour>
      <point x="70.0" y="270.0" type="line" smooth="yes"/>
      <point x="70.0" y="419.0"/>
      <point x="171.0" y="510.0"/>
      <point x="275.0" y="510.0" type="curve" smooth="yes"/>
      <point x="409.0" y="510.0"/>
      <point x="480.0" y="419.0"/>
      <point x="480.0" y="270.0" type="curve" smooth="yes"/>
      <point x="480.0" y="0.0" type="line"/>
      <point x="365.0" y="0.0" type="line"/>
      <point x="365.0" y="270.0" type="line" smooth="yes"/>
      <point x="365.0" y="313.0"/>
      <point x="335.0" y="335.0"/>
      <point x="305.0" y="335.0" type="curve" smooth="yes"/>
      <point x="275.0" y="335.0"/>
      <point x="245.0" y="313.0"/>
      <point x="245.0" y="270.0" type="curve" smooth="yes"/>
      <point x="245.0" y="0.0" type="line"/>
      <point x="70.0" y="0.0" type="line"/>
    </contour>
  </outline>
</glyph>
<glyph name="n" format="2">
  <advance width="680"/>
  <unicode hex="006E"/>
  <outline>
    <contour>
      <point x="80.0" y="238.0" type="line" smooth="yes"/>
      <point x="80.0" y="420.0"/>
      <point x="206.0" y="510.0"/>
      <point x="340.0" y="510.0" type="curve" smooth="yes"/>
      <point x="476.0" y="510.0"/>
      <point x="600.0" y="420.0"/>
      <point x="600.0" y="238.0" type="curve" smooth="yes"/>
      <point x="600.0" y="0.0" type="line"/>
      <point x="425.0" y="0.0" type="line"/>
      <point x="425.0" y="236.0" type="line" smooth="yes"/>
      <point x="425.0" y="319.0"/>
      <point x="373.0" y="335.0"/>
      <point x="340.0" y="335.0" type="curve" smooth="yes"/>
      <point x="307.0" y="335.0"/>
      <point x="255.0" y="319.0"/>
      <point x="255.0" y="236.0" type="curve" smooth="yes"/>
      <point x="255.0" y="0.0" type="line"/>
      <point x="80.0" y="0.0" type="line"/>
    </contour>
  </outline>
</glyph>
<glyph name="uni006E" format="2">
  <advance width="590"/>
  <unicode hex="006E"/>
  <outline>
    <contour>
      <point x="60.0" y="270.0" type="line" smooth="yes"/>
      <point x="60.0" y="419.0"/>
      <point x="178.0" y="510.0"/>
      <point x="295.0" y="510.0" type="curve" smooth="yes"/>
      <point x="412.0" y="510.0"/>
      <point x="530.0" y="419.0"/>
      <point x="530.0" y="270.0" type="curve" smooth="yes"/>
      <point x="530.0" y="0.0" type="line"/>
      <point x="355.0" y="0.0" type="line"/>
      <point x="355.0" y="270.0" type="line" smooth="yes"/>
      <point x="355.0" y="313.0"/>
      <point x="328.0" y="335.0"/>
      <point x="295.0" y="335.0" type="curve" smooth="yes"/>
      <point x="262.0" y="335.0"/>
      <point x="235.0" y="313.0"/>
      <point x="235.0" y="270.0" type="curve" smooth="yes"/>
      <point x="235.0" y="0.0" type="line"/>
      <point x="60.0" y="0.0" type="line"/>
    </contour>
  </outline>
</glyph>
<glyph name="o" format="2">
  <advance width="640"/>
  <unicode hex="006F"/>
  <outline>
    <contour>
      <point x="235.0" y="250.0" type="curve" smooth="yes"/>
      <point x="235.0" y="205.0"/>
      <point x="267.0" y="165.0"/>
      <point x="320.0" y="165.0" type="curve" smooth="yes"/>
      <point x="373.0" y="165.0"/>
      <point x="405.0" y="205.0"/>
      <point x="405.0" y="250.0" type="curve" smooth="yes"/>
      <point x="405.0" y="295.0"/>
      <point x="373.0" y="335.0"/>
      <point x="320.0" y="335.0" type="curve" smooth="yes"/>
      <point x="267.0" y="335.0"/>
      <point x="235.0" y="295.0"/>
    </contour>
    <contour>
      <point x="60.0" y="250.0" type="curve" smooth="yes"/>
      <point x="60.0" y="395.0"/>
      <point x="166.0" y="510.0"/>
      <point x="320.0" y="510.0" type="curve" smooth="yes"/>
      <point x="478.0" y="510.0"/>
      <point x="580.0" y="395.0"/>
      <point x="580.0" y="250.0" type="curve" smooth="yes"/>
      <point x="580.0" y="105.0"/>
      <point x="478.0" y="-10.0"/>
      <point x="320.0" y="-10.0" type="curve" smooth="yes"/>
      <point x="166.0" y="-10.0"/>
      <point x="60.0" y="105.0"/>
    </contour>
  </outline>
</glyph>
<glyph name="q" format="2">
  <advance width="630"/>
  <unicode hex="0071"/>
  <outline>
    <contour>
      <point x="300.0" y="335.0" type="curve" smooth="yes"/>
      <point x="250.0" y="335.0"/>
      <point x="215.0" y="294.0"/>
      <point x="215.0" y="250.0" type="curve" smooth="yes"/>
      <point x="215.0" y="205.0"/>
      <point x="251.0" y="165.0"/>
      <point x="300.0" y="165.0" type="curve" smooth="yes"/>
      <point x="312.019857621" y="165.0"/>
      <point x="320.12109375" y="166.654296875"/>
      <point x="332.0" y="170.997070312" type="curve"/>
      <point x="332.0" y="-8.1669921875" type="line"/>
      <point x="324.494140625" y="-9.0341796875"/>
      <point x="312.482421875" y="-10.0"/>
      <point x="300.0" y="-10.0" type="curve" smooth="yes"/>
      <point x="156.0" y="-10.0"/>
      <point x="40.0" y="105.0"/>
      <point x="40.0" y="249.0" type="curve" smooth="yes"/>
      <point x="40.0" y="393.0"/>
      <point x="156.0" y="510.0"/>
      <point x="300.0" y="510.0" type="curve" smooth="yes"/>
      <point x="431.0" y="510.0"/>
      <point x="550.0" y="410.0"/>
      <point x="550.0" y="248.0" type="curve" smooth="yes"/>
      <point x="550.0" y="-328.0" type="line"/>
      <point x="375.0" y="-328.0" type="line"/>
      <point x="375.0" y="246.0" type="line" smooth="yes"/>
      <point x="375.0" y="309.0"/>
      <point x="338.0" y="335.0"/>
    </contour>
  </outline>
</glyph>
<glyph name="uni0071" format="2">
  <advance width="609"/>
  <unicode hex="0071"/>
  <outline>
    <contour>
      <point x="299.0" y="335.0" type="curve" smooth="yes"/>
      <point x="249.0" y="335.0"/>
      <point x="214.0" y="294.0"/>
      <point x="214.0" y="250.0" type="curve" smooth="yes"/>
      <point x="214.0" y="205.0"/>
      <point x="250.0" y="165.0"/>
      <point x="299.0" y="165.0" type="curve" smooth="yes"/>
      <point x="311.01953125" y="165.0"/>
      <point x="319.12109375" y="166.654296875"/>
      <point x="331.0" y="170.997070312" type="curve"/>
      <point x="331.0" y="-8.1669921875" type="line"/>
      <point x="323.494140625" y="-9.0341796875"/>
      <point x="311.482421875" y="-10.0"/>
      <point x="299.0" y="-10.0" type="curve" smooth="yes"/>
      <point x="155.0" y="-10.0"/>
      <point x="39.0" y="105.0"/>
      <point x="39.0" y="249.0" type="curve" smooth="yes"/>
      <point x="39.0" y="393.0"/>
      <point x="155.0" y="510.0"/>
      <point x="299.0" y="510.0" type="curve" smooth="yes"/>
      <point x="430.0" y="510.0"/>
      <point x="549.0" y="410.0"/>
      <point x="549.0" y="248.0" type="curve" smooth="yes"/>
      <point x="549.0" y="-328.0" type="line"/>
      <point x="374.0" y="-328.0" type="line"/>
      <point x="374.0" y="246.0" type="line" smooth="yes"/>
      <point x="374.0" y="309.0"/>
      <point x="337.0" y="335.0"/>
    </contour>
  </outline>
</glyph>
<glyph name="r" format="2">
  <advance width="421"/>
  <unicode hex="0072"/>
  <outline>
    <contour>
      <point x="340.0" y="510.0" type="curve" smooth="yes"/>
      <point x="364.0" y="510.0"/>
      <point x="385.0" y="507.0"/>
      <point x="401.0" y="503.0" type="curve"/>
      <point x="401.0" y="328.0" type="line"/>
      <point x="386.0" y="333.0"/>
      <point x="368.0" y="335.0"/>
      <point x="355.0" y="335.0" type="curve" smooth="yes"/>
      <point x="275.991210938" y="335.0"/>
      <point x="255.0" y="283.0"/>
      <point x="255.0" y="250.0" type="curve" smooth="yes"/>
      <point x="255.0" y="0.0" type="line"/>
      <point x="80.0" y="0.0" type="line"/>
      <point x="80.0" y="250.0" type="line" smooth="yes"/>
      <point x="80.0" y="398.0"/>
      <point x="195.996296347" y="510.0"/>
    </contour>
  </outline>
</glyph>
<glyph name="uni0072" format="2">
  <advance width="426"/>
  <unicode hex="0072"/>
  <outline>
    <contour>
      <point x="320.0" y="510.0" type="curve" smooth="yes"/>
      <point x="344.0" y="510.0"/>
      <point x="365.0" y="507.0"/>
      <point x="381.0" y="503.0" type="curve"/>
      <point x="381.0" y="328.0" type="line"/>
      <point x="365.0" y="333.0"/>
      <point x="349.0" y="335.0"/>
      <point x="335.0" y="335.0" type="curve" smooth="yes"/>
      <point x="287.447265625" y="335.0"/>
      <point x="235.0" y="302.040039062"/>
      <point x="235.0" y="230.0" type="curve" smooth="yes"/>
      <point x="235.0" y="0.0" type="line"/>
      <point x="60.0" y="0.0" type="line"/>
      <point x="60.0" y="250.0" type="line" smooth="yes"/>
      <point x="60.0" y="398.0"/>
      <point x="175.99609375" y="510.0"/>
    </contour>
  </outline>
</glyph>
<glyph name="s" format="2">
  <advance width="507"/>
  <unicode hex="0073"/>
  <outline>
    <contour>
      <point x="166.0" y="270.0" type="curve" smooth="yes"/>
      <point x="177.0" y="417.0"/>
      <point x="302.0" y="510.0"/>
      <point x="406.0" y="510.0" type="curve" smooth="yes"/>
      <point x="440.0" y="510.0"/>
      <point x="471.0" y="507.0"/>
      <point x="487.0" y="503.0" type="curve"/>
      <point x="487.0" y="328.0" type="line"/>
      <point x="472.0" y="333.0"/>
      <point x="454.0" y="335.0"/>
      <point x="441.0" y="335.0" type="curve" smooth="yes"/>
      <point x="362.0" y="335.0"/>
      <point x="345.641540955" y="292.027865493"/>
      <point x="341.0" y="230.0" type="curve" smooth="yes"/>
      <point x="330.0" y="83.0"/>
      <point x="205.0" y="-10.0"/>
      <point x="101.0" y="-10.0" type="curve" smooth="yes"/>
      <point x="67.0" y="-10.0"/>
      <point x="36.0" y="-7.0"/>
      <point x="20.0" y="-3.0" type="curve"/>
      <point x="20.0" y="172.0" type="line"/>
      <point x="35.0" y="167.0"/>
      <point x="53.0" y="165.0"/>
      <point x="66.0" y="165.0" type="curve" smooth="yes"/>
      <point x="145.0" y="165.0"/>
      <point x="161.358459045" y="207.972134507"/>
    </contour>
  </outline>
</glyph>
<glyph name="t" format="2">
  <advance width="441"/>
  <unicode hex="0074"/>
  <outline>
    <contour>
      <point x="320.0" y="-10.0" type="curve" smooth="yes"/>
      <point x="175.99609375" y="-10.0"/>
      <point x="60.0" y="102.0"/>
      <point x="60.0" y="250.0" type="curve" smooth="yes"/>
      <point x="60.0" y="679.0" type="line"/>
      <point x="235.0" y="679.0" type="line"/>
      <point x="235.0" y="500.0" type="line"/>
      <point x="372.0" y="500.0" type="line"/>
      <point x="372.0" y="332.0" type="line"/>
      <point x="235.0" y="332.0" type="line"/>
      <point x="235.0" y="250.0" type="line" smooth="yes"/>
      <point x="235.0" y="217.0"/>
      <point x="255.991210938" y="165.0"/>
      <point x="335.0" y="165.0" type="curve" smooth="yes"/>
      <point x="348.0" y="165.0"/>
      <point x="366.0" y="167.0"/>
      <point x="381.0" y="172.0" type="curve"/>
      <point x="381.0" y="-3.0" type="line"/>
      <point x="365.0" y="-7.0"/>
      <point x="344.0" y="-10.0"/>
    </contour>
  </outline>
</glyph>
<glyph name="uni0074" format="2">
  <advance width="441"/>
  <unicode hex="0074"/>
  <outline>
    <contour>
      <point x="320.0" y="-10.0" type="curve" smooth="yes"/>
      <point x="175.99609375" y="-10.0"/>
      <point x="60.0" y="102.0"/>
      <point x="60.0" y="250.0" type="curve" smooth="yes"/>
      <point x="60.0" y="679.0" type="line"/>
      <point x="235.0" y="679.0" type="line"/>
      <point x="235.0" y="500.0" type="line"/>
      <point x="376.0" y="500.0" type="line"/>
      <point x="376.0" y="332.0" type="line"/>
      <point x="235.0" y="332.0" type="line"/>
      <point x="235.0" y="270.0" type="line" smooth="yes"/>
      <point x="235.0" y="198.0"/>
      <point x="287.447265625" y="165.0"/>
      <point x="335.0" y="165.0" type="curve" smooth="yes"/>
      <point x="349.0" y="165.0"/>
      <point x="365.0" y="167.0"/>
      <point x="381.0" y="172.0" type="curve"/>
      <point x="381.0" y="-3.0" type="line"/>
      <point x="365.0" y="-7.0"/>
      <point x="344.0" y="-10.0"/>
    </contour>
  </outline>
</glyph>
<glyph name="uni0076" format="2">
  <advance width="590"/>
  <unicode hex="0076"/>
  <outline>
    <contour>
      <point x="530.0" y="230.0" type="line" smooth="yes"/>
      <point x="530.0" y="81.0"/>
      <point x="412.0" y="0.0"/>
      <point x="295.0" y="0.0" type="curve" smooth="yes"/>
      <point x="60.0" y="0.0" type="line"/>
      <point x="60.0" y="500.0" type="line"/>
      <point x="235.0" y="500.0" type="line"/>
      <point x="235.0" y="175.0" type="line"/>
      <point x="295.0" y="175.0" type="line" smooth="yes"/>
      <point x="328.0" y="175.0"/>
      <point x="355.0" y="187.0"/>
      <point x="355.0" y="230.0" type="curve" smooth="yes"/>
      <point x="355.0" y="500.0" type="line"/>
      <point x="530.0" y="500.0" type="line"/>
    </contour>
  </outline>
</glyph>
<glyph name="v" format="2">
  <advance width="610"/>
  <unicode hex="0076"/>
  <outline>
    <contour>
      <point x="540.0" y="230.0" type="line" smooth="yes"/>
      <point x="540.0" y="81.0"/>
      <point x="422.0" y="0.0"/>
      <point x="305.0" y="0.0" type="curve" smooth="yes"/>
      <point x="70.0" y="0.0" type="line"/>
      <point x="70.0" y="500.0" type="line"/>
      <point x="245.0" y="500.0" type="line"/>
      <point x="245.0" y="175.0" type="line"/>
      <point x="305.0" y="175.0" type="line" smooth="yes"/>
      <point x="338.0" y="175.0"/>
      <point x="365.0" y="187.0"/>
      <point x="365.0" y="230.0" type="curve" smooth="yes"/>
      <point x="365.0" y="500.0" type="line"/>
      <point x="540.0" y="500.0" type="line"/>
    </contour>
  </outline>
</glyph>
<glyph name="uni0077" format="2">
  <advance width="885"/>
  <unicode hex="0077"/>
  <outline>
    <contour>
      <point x="480.0" y="230.0" type="line" smooth="yes"/>
      <point x="480.0" y="71.0"/>
      <point x="412.0" y="0.0"/>
      <point x="295.0" y="0.0" type="curve" smooth="yes"/>
      <point x="60.0" y="0.0" type="line"/>
      <point x="60.0" y="500.0" type="line"/>
      <point x="235.0" y="500.0" type="line"/>
      <point x="235.0" y="175.0" type="line"/>
      <point x="295.0" y="175.0" type="line" smooth="yes"/>
      <point x="328.0" y="175.0"/>
      <point x="355.0" y="187.0"/>
      <point x="355.0" y="230.0" type="curve" smooth="yes"/>
      <point x="355.0" y="500.0" type="line"/>
      <point x="480.0" y="500.0" type="line"/>
    </contour>
    <contour>
      <point x="825.0" y="230.0" type="line" smooth="yes"/>
      <point x="825.0" y="81.0"/>
      <point x="724.0" y="-10.0"/>
      <point x="620.0" y="-10.0" type="curve" smooth="yes"/>
      <point x="486.0" y="-10.0"/>
      <point x="405.0" y="71.0"/>
      <point x="405.0" y="230.0" type="curve" smooth="yes"/>
      <point x="405.0" y="500.0" type="line"/>
      <point x="530.0" y="500.0" type="line"/>
      <point x="530.0" y="230.0" type="line" smooth="yes"/>
      <point x="530.0" y="187.0"/>
      <point x="560.0" y="165.0"/>
      <point x="590.0" y="165.0" type="curve" smooth="yes"/>
      <point x="620.0" y="165.0"/>
      <point x="650.0" y="187.0"/>
      <point x="650.0" y="230.0" type="curve" smooth="yes"/>
      <point x="650.0" y="500.0" type="line"/>
      <point x="825.0" y="500.0" type="line"/>
    </contour>
  </outline>
</glyph>
<glyph name="uni0078" format="2">
  <advance width="587"/>
  <unicode hex="0078"/>
  <outline>
    <contour>
      <point x="108.0" y="335.0" type="curve" smooth="yes"/>
      <point x="91.0" y="335.0"/>
      <point x="76.0" y="333.0"/>
      <point x="60.0" y="328.0" type="curve"/>
      <point x="60.0" y="503.0" type="line"/>
      <point x="76.0" y="507.0"/>
      <point x="97.0" y="510.0"/>
      <point x="121.0" y="510.0" type="curve" smooth="yes"/>
      <point x="271.0" y="510.0"/>
      <point x="336.0" y="391.0"/>
      <point x="336.0" y="250.0" type="curve" smooth="yes"/>
      <point x="336.0" y="108.99609375"/>
      <point x="272.0" y="-10.0"/>
      <point x="121.0" y="-10.0" type="curve" smooth="yes"/>
      <point x="97.0" y="-10.0"/>
      <point x="76.0" y="-7.0"/>
      <point x="60.0" y="-3.0" type="curve"/>
      <point x="60.0" y="172.0" type="line"/>
      <point x="76.0" y="167.0"/>
      <point x="90.970703125" y="165.0"/>
      <point x="108.0" y="165.0" type="curve" smooth="yes"/>
      <point x="174.0078125" y="165.0"/>
      <point x="206.0" y="207.0"/>
      <point x="206.0" y="250.0" type="curve" smooth="yes"/>
      <point x="206.0" y="293.0"/>
      <point x="174.0" y="335.0"/>
    </contour>
    <contour>
      <point x="479.0" y="165.0" type="curve" smooth="yes"/>
      <point x="496.0" y="165.0"/>
      <point x="511.0" y="167.0"/>
      <point x="527.0" y="172.0" type="curve"/>
      <point x="527.0" y="-3.0" type="line"/>
      <point x="511.0" y="-7.0"/>
      <point x="490.0" y="-10.0"/>
      <point x="466.0" y="-10.0" type="curve" smooth="yes"/>
      <point x="316.0" y="-10.0"/>
      <point x="251.0" y="109.0"/>
      <point x="251.0" y="250.0" type="curve" smooth="yes"/>
      <point x="251.0" y="391.00390625"/>
      <point x="315.0" y="510.0"/>
      <point x="466.0" y="510.0" type="curve" smooth="yes"/>
      <point x="490.0" y="510.0"/>
      <point x="511.0" y="507.0"/>
      <point x="527.0" y="503.0" type="curve"/>
      <point x="527.0" y="328.0" type="line"/>
      <point x="511.0" y="333.0"/>
      <point x="496.029296875" y="335.0"/>
      <point x="479.0" y="335.0" type="curve" smooth="yes"/>
      <point x="412.9921875" y="335.0"/>
      <point x="381.0" y="293.0"/>
      <point x="381.0" y="250.0" type="curve" smooth="yes"/>
      <point x="381.0" y="207.0"/>
      <point x="413.0" y="165.0"/>
    </contour>
  </outline>
</glyph>
<glyph name="x" format="2">
  <advance width="545"/>
  <unicode hex="0078"/>
  <outline>
    <contour>
      <point x="50.0" y="500.0" type="line"/>
      <point x="179.0" y="500.0"/>
      <point x="252.0" y="441.0"/>
      <point x="272.0" y="363.0" type="curve"/>
      <point x="292.0" y="441.0"/>
      <point x="366.0" y="500.0"/>
      <point x="495.0" y="500.0" type="curve"/>
      <point x="495.0" y="325.0" type="line"/>
      <point x="391.0" y="325.0"/>
      <point x="360.0" y="289.0"/>
      <point x="360.0" y="250.0" type="curve" smooth="yes"/>
      <point x="360.0" y="211.0"/>
      <point x="391.0" y="175.0"/>
      <point x="495.0" y="175.0" type="curve"/>
      <point x="495.0" y="0.0" type="line"/>
      <point x="366.0" y="0.0"/>
      <point x="292.0" y="59.0"/>
      <point x="272.0" y="137.0" type="curve"/>
      <point x="252.0" y="59.0"/>
      <point x="179.0" y="0.0"/>
      <point x="50.0" y="0.0" type="curve"/>
      <point x="50.0" y="175.0" type="line"/>
      <point x="154.0" y="175.0"/>
      <point x="185.0" y="211.0"/>
      <point x="185.0" y="250.0" type="curve" smooth="yes"/>
      <point x="185.0" y="289.0"/>
      <point x="154.0" y="325.0"/>
      <point x="50.0" y="325.0" type="curve"/>
    </contour>
  </outline>
</glyph>
<glyph name="uni0079" format="2">
  <advance width="590"/>
  <unicode hex="0079"/>
  <outline>
    <contour>
      <point x="420.0" y="230.0" type="line" smooth="yes"/>
      <point x="420.0" y="101.0"/>
      <point x="384.0" y="-10.0"/>
      <point x="270.0" y="-10.0" type="curve" smooth="yes"/>
      <point x="146.0" y="-10.0"/>
      <point x="60.0" y="81.0"/>
      <point x="60.0" y="230.0" type="curve" smooth="yes"/>
      <point x="60.0" y="500.0" type="line"/>
      <point x="235.0" y="500.0" type="line"/>
      <point x="235.0" y="230.0" type="line" smooth="yes"/>
      <point x="235.0" y="187.0"/>
      <point x="262.0" y="165.0"/>
      <point x="295.0" y="165.0" type="curve" smooth="yes"/>
      <point x="328.0" y="165.0"/>
      <point x="355.0" y="187.0"/>
      <point x="355.0" y="230.0" type="curve" smooth="yes"/>
      <point x="355.0" y="290.0" type="line"/>
      <point x="420.0" y="290.0" type="line"/>
    </contour>
    <contour>
      <point x="144.0" y="-128.0" type="line"/>
      <point x="186.0" y="-155.0"/>
      <point x="212.989257812" y="-163.0"/>
      <point x="248.0" y="-163.0" type="curve" smooth="yes"/>
      <point x="315.553710938" y="-163.0"/>
      <point x="355.0" y="-130.0"/>
      <point x="355.0" y="-78.0" type="curve" smooth="yes"/>
      <point x="355.0" y="500.0" type="line"/>
      <point x="530.0" y="500.0" type="line"/>
      <point x="530.0" y="-82.0" type="line" smooth="yes"/>
      <point x="530.0" y="-226.0"/>
      <point x="414.00390625" y="-338.0"/>
      <point x="270.0" y="-338.0" type="curve" smooth="yes"/>
      <point x="224.0" y="-338.0"/>
      <point x="186.0" y="-328.0"/>
      <point x="144.0" y="-307.0" type="curve"/>
    </contour>
  </outline>
</glyph>
<glyph name="y" format="2">
  <advance width="620"/>
  <unicode hex="0079"/>
  <outline>
    <contour>
      <point x="154.0" y="-132.0" type="line"/>
      <point x="196.0" y="-157.0"/>
      <point x="222.989257812" y="-163.0"/>
      <point x="258.0" y="-163.0" type="curve" smooth="yes"/>
      <point x="325.553710938" y="-163.0"/>
      <point x="365.0" y="-130.0"/>
      <point x="365.0" y="-78.0" type="curve" smooth="yes"/>
      <point x="365.0" y="500.0" type="line"/>
      <point x="540.0" y="500.0" type="line"/>
      <point x="540.0" y="-82.0" type="line" smooth="yes"/>
      <point x="540.0" y="-226.0"/>
      <point x="424.00347218" y="-338.0"/>
      <point x="280.0" y="-338.0" type="curve" smooth="yes"/>
      <point x="234.0" y="-338.0"/>
      <point x="196.0" y="-328.0"/>
      <point x="154.0" y="-307.0" type="curve"/>
    </contour>
    <contour>
      <point x="400.0" y="220.0" type="line" smooth="yes"/>
      <point x="400.0" y="91.0"/>
      <point x="384.0" y="-10.0"/>
      <point x="270.0" y="-10.0" type="curve" smooth="yes"/>
      <point x="156.0" y="-10.0"/>
      <point x="80.0" y="81.0"/>
      <point x="80.0" y="220.0" type="curve" smooth="yes"/>
      <point x="80.0" y="500.0" type="line"/>
      <point x="255.0" y="500.0" type="line"/>
      <point x="255.0" y="220.0" type="line" smooth="yes"/>
      <point x="255.0" y="187.0"/>
      <point x="280.0" y="165.0"/>
      <point x="310.0" y="165.0" type="curve" smooth="yes"/>
      <point x="340.0" y="165.0"/>
      <point x="365.0" y="187.0"/>
      <point x="365.0" y="220.0" type="curve" smooth="yes"/>
      <point x="365.0" y="280.0" type="line"/>
      <point x="400.0" y="280.0" type="line"/>
    </contour>
  </outline>
</glyph>
<glyph name="uni007A" format="2">
  <advance width="493"/>
  <unicode hex="007A"/>
  <outline>
    <contour>
      <point x="61.0" y="479.0" type="line"/>
      <point x="100.0" y="499.0"/>
      <point x="139.0" y="510.0"/>
      <point x="186.0" y="510.0" type="curve" smooth="yes"/>
      <point x="332.0" y="510.0"/>
      <point x="442.0" y="393.950195312"/>
      <point x="442.0" y="260.0" type="curve" smooth="yes"/>
      <point x="442.0" y="119.0"/>
      <point x="316.0" y="45.0"/>
      <point x="190.0" y="45.0" type="curve" smooth="yes"/>
      <point x="68.0" y="45.0" type="line"/>
      <point x="68.0" y="169.0" type="line"/>
      <point x="140.0" y="169.0" type="line" smooth="yes"/>
      <point x="254.0" y="169.0"/>
      <point x="267.0" y="211.0"/>
      <point x="267.0" y="255.0" type="curve" smooth="yes"/>
      <point x="267.0" y="310.0"/>
      <point x="221.009765625" y="335.0"/>
      <point x="162.0" y="335.0" type="curve" smooth="yes"/>
      <point x="117.950195312" y="335.0"/>
      <point x="93.0" y="322.0"/>
      <point x="61.0" y="304.0" type="curve"/>
    </contour>
    <contour>
      <point x="60.0" y="-307.0" type="curve"/>
      <point x="60.0" y="-132.0" type="line"/>
      <point x="92.0" y="-150.0"/>
      <point x="117.950195312" y="-163.0"/>
      <point x="162.0" y="-163.0" type="curve" smooth="yes"/>
      <point x="221.009765625" y="-163.0"/>
      <point x="273.0" y="-138.0"/>
      <point x="273.0" y="-83.0" type="curve" smooth="yes"/>
      <point x="273.0" y="-39.0"/>
      <point x="254.0" y="3.0"/>
      <point x="140.0" y="3.0" type="curve" smooth="yes"/>
      <point x="68.0" y="3.0" type="line"/>
      <point x="68.0" y="127.0" type="line"/>
      <point x="190.0" y="128.0" type="line" smooth="yes"/>
      <point x="316.0" y="128.0"/>
      <point x="448.0" y="53.0"/>
      <point x="448.0" y="-88.0" type="curve" smooth="yes"/>
      <point x="448.0" y="-221.950195312"/>
      <point x="332.0" y="-338.0"/>
      <point x="186.0" y="-338.0" type="curve" smooth="yes"/>
      <point x="139.0" y="-338.0"/>
      <point x="99.0" y="-327.0"/>
    </contour>
  </outline>
</glyph>
<glyph name="z" format="2">
  <advance width="470"/>
  <unicode hex="007A"/>
  <outline>
    <contour>
      <point x="44.0" y="479.0" type="line"/>
      <point x="83.0" y="499.0"/>
      <point x="121.0" y="510.0"/>
      <point x="168.0" y="510.0" type="curve" smooth="yes"/>
      <point x="314.0" y="510.0"/>
      <point x="424.0" y="393.950195312"/>
      <point x="424.0" y="260.0" type="curve" smooth="yes"/>
      <point x="424.0" y="119.0"/>
      <point x="298.0" y="45.0"/>
      <point x="172.0" y="45.0" type="curve" smooth="yes"/>
      <point x="70.0" y="45.0" type="line"/>
      <point x="70.0" y="169.0" type="line"/>
      <point x="122.0" y="169.0" type="line" smooth="yes"/>
      <point x="236.0" y="169.0"/>
      <point x="249.0" y="211.0"/>
      <point x="249.0" y="255.0" type="curve" smooth="yes"/>
      <point x="249.0" y="310.0"/>
      <point x="203.009765625" y="335.0"/>
      <point x="144.0" y="335.0" type="curve" smooth="yes"/>
      <point x="99.9501953125" y="335.0"/>
      <point x="76.0" y="322.0"/>
      <point x="44.0" y="304.0" type="curve"/>
    </contour>
    <contour>
      <point x="40.0" y="-307.0" type="curve"/>
      <point x="40.0" y="-132.0" type="line"/>
      <point x="72.0" y="-150.0"/>
      <point x="99.9501953125" y="-163.0"/>
      <point x="144.0" y="-163.0" type="curve" smooth="yes"/>
      <point x="203.009765625" y="-163.0"/>
      <point x="255.0" y="-138.0"/>
      <point x="255.0" y="-83.0" type="curve" smooth="yes"/>
      <point x="255.0" y="-39.0"/>
      <point x="236.0" y="3.0"/>
      <point x="122.0" y="3.0" type="curve" smooth="yes"/>
      <point x="70.0" y="3.0" type="line"/>
      <point x="70.0" y="127.0" type="line"/>
      <point x="172.0" y="128.0" type="line" smooth="yes"/>
      <point x="298.0" y="128.0"/>
      <point x="430.0" y="53.0"/>
      <point x="430.0" y="-88.0" type="curve" smooth="yes"/>
      <point x="430.0" y="-221.950195312"/>
      <point x="314.0" y="-338.0"/>
      <point x="168.0" y="-338.0" type="curve" smooth="yes"/>
      <point x="121.0" y="-338.0"/>
      <point x="79.0" y="-327.0"/>
    </contour>
  </outline>
</glyph>
<glyph name="uni0261" format="2">
  <advance width="630"/>
  <unicode hex="0261"/>
  <outline>
    <contour>
      <point x="375.0" y="-78.0" type="curve" smooth="yes"/>
      <point x="375.0" y="246.0" type="line" smooth="yes"/>
      <point x="375.0" y="309.0"/>
      <point x="338.0" y="335.0"/>
      <point x="300.0" y="335.0" type="curve" smooth="yes"/>
      <point x="250.0" y="335.0"/>
      <point x="215.0" y="294.0"/>
      <point x="215.0" y="250.0" type="curve" smooth="yes"/>
      <point x="215.0" y="205.0"/>
      <point x="251.0" y="165.0"/>
      <point x="300.0" y="165.0" type="curve" smooth="yes"/>
      <point x="312.019857621" y="165.0"/>
      <point x="320.12109375" y="166.654296875"/>
      <point x="332.0" y="170.997070312" type="curve"/>
      <point x="332.0" y="-8.1669921875" type="line"/>
      <point x="324.494140625" y="-9.0341796875"/>
      <point x="312.482421875" y="-10.0"/>
      <point x="300.0" y="-10.0" type="curve" smooth="yes"/>
      <point x="156.0" y="-10.0"/>
      <point x="40.0" y="105.0"/>
      <point x="40.0" y="249.0" type="curve" smooth="yes"/>
      <point x="40.0" y="393.0"/>
      <point x="156.0" y="510.0"/>
      <point x="300.0" y="510.0" type="curve" smooth="yes"/>
      <point x="431.0" y="510.0"/>
      <point x="550.0" y="410.0"/>
      <point x="550.0" y="248.0" type="curve" smooth="yes"/>
      <point x="550.0" y="-82.0" type="line" smooth="yes"/>
      <point x="550.0" y="-226.0"/>
      <point x="434.00390625" y="-338.0"/>
      <point x="290.0" y="-338.0" type="curve" smooth="yes"/>
      <point x="244.0" y="-338.0"/>
      <point x="206.0" y="-328.0"/>
      <point x="164.0" y="-307.0" type="curve"/>
      <point x="164.0" y="-132.0" type="line"/>
      <point x="206.0" y="-157.0"/>
      <point x="232.989257812" y="-163.0"/>
      <point x="268.0" y="-163.0" type="curve" smooth="yes"/>
      <point x="335.553710938" y="-163.0"/>
      <point x="375.0" y="-130.0"/>
    </contour>
  </outline>
</glyph>
<glyph name="uniE651" format="2">
  <advance width="609"/>
  <unicode hex="E651"/>
  <outline>
    <contour>
      <point x="299.0" y="-163.0" type="curve" smooth="yes"/>
      <point x="337.0" y="-163.0"/>
      <point x="374.0" y="-137.0"/>
      <point x="374.0" y="-74.0" type="curve" smooth="yes"/>
      <point x="374.0" y="500.0" type="line"/>
      <point x="549.0" y="500.0" type="line"/>
      <point x="549.0" y="-76.0" type="line" smooth="yes"/>
      <point x="549.0" y="-238.0"/>
      <point x="430.0" y="-338.0"/>
      <point x="299.0" y="-338.0" type="curve" smooth="yes"/>
      <point x="155.0" y="-338.0"/>
      <point x="39.0" y="-221.0"/>
      <point x="39.0" y="-77.0" type="curve" smooth="yes"/>
      <point x="39.0" y="67.0"/>
      <point x="155.0" y="182.0"/>
      <point x="299.0" y="182.0" type="curve" smooth="yes"/>
      <point x="311.482421875" y="182.0"/>
      <point x="323.494140625" y="181.034179688"/>
      <point x="331.0" y="180.166992188" type="curve"/>
      <point x="331.0" y="1.0029296875" type="line"/>
      <point x="319.12109375" y="5.345703125"/>
      <point x="311.01953125" y="7.0"/>
      <point x="299.0" y="7.0" type="curve" smooth="yes"/>
      <point x="250.0" y="7.0"/>
      <point x="214.0" y="-33.0"/>
      <point x="214.0" y="-78.0" type="curve" smooth="yes"/>
      <point x="214.0" y="-122.0"/>
      <point x="249.0" y="-163.0"/>
    </contour>
  </outline>
</glyph>
<glyph name="uniE653" format="2">
  <advance width="542"/>
  <unicode hex="E653"/>
  <outline>
    <contour>
      <point x="60.0" y="500.0" type="line"/>
      <point x="235.0" y="500.0" type="line"/>
      <point x="235.0" y="-328.0" type="line"/>
      <point x="60.0" y="-328.0" type="line"/>
    </contour>
    <contour>
      <point x="460.0" y="175.0" type="curve" smooth="yes"/>
      <point x="474.0" y="175.0"/>
      <point x="488.0" y="174.0"/>
      <point x="501.0" y="170.0" type="curve"/>
      <point x="501.0" y="-5.0" type="line"/>
      <point x="486.0" y="-1.0"/>
      <point x="469.0" y="0.0"/>
      <point x="455.0" y="0.0" type="curve" smooth="yes"/>
      <point x="342.447265625" y="0.0"/>
      <point x="235.0" y="-92.9599609375"/>
      <point x="235.0" y="-220.0" type="curve" smooth="yes"/>
      <point x="235.0" y="-263.0" type="line"/>
      <point x="160.0" y="-263.0" type="line"/>
      <point x="160.0" y="-200.0" type="line" smooth="yes"/>
      <point x="160.0" y="18.0"/>
      <point x="245.99609375" y="175.0"/>
    </contour>
  </outline>
</glyph>
<glyph name="gig" format="2">
  <advance width="615"/>
  <unicode hex="E655"/>
  <outline>
    <contour>
      <point x="300.0" y="4.0" type="curve" smooth="yes"/>
      <point x="173.0" y="21.0"/>
      <point x="42.0" y="115.0"/>
      <point x="42.0" y="256.0" type="curve" smooth="yes"/>
      <point x="42.0" y="390.0"/>
      <point x="158.0" y="510.0"/>
      <point x="310.0" y="510.0" type="curve" smooth="yes"/>
      <point x="383.0" y="510.0"/>
      <point x="433.0" y="487.0"/>
      <point x="462.0" y="465.0" type="curve"/>
      <point x="462.0" y="297.0" type="line"/>
      <point x="414.0" y="330.0"/>
      <point x="366.009765625" y="342.0"/>
      <point x="310.0" y="342.0" type="curve" smooth="yes"/>
      <point x="254.0" y="342.0"/>
      <point x="217.0" y="306.0"/>
      <point x="217.0" y="258.0" type="curve" smooth="yes"/>
      <point x="217.0" y="214.0"/>
      <point x="256.307399002" y="179.194225293"/>
      <point x="300.0" y="174.0" type="curve" smooth="yes"/>
      <point x="443.0" y="157.0"/>
      <point x="558.0" y="53.0"/>
      <point x="558.0" y="-81.0" type="curve" smooth="yes"/>
      <point x="558.0" y="-228.0"/>
      <point x="433.0" y="-338.0"/>
      <point x="300.0" y="-338.0" type="curve" smooth="yes"/>
      <point x="168.0" y="-338.0"/>
      <point x="42.0" y="-227.0"/>
      <point x="42.0" y="-86.0" type="curve" smooth="yes"/>
      <point x="42.0" y="-71.0"/>
      <point x="44.0" y="-50.0"/>
      <point x="46.0" y="-36.0" type="curve"/>
      <point x="226.0" y="-36.0" type="line"/>
      <point x="220.0" y="-47.0"/>
      <point x="217.0" y="-66.0"/>
      <point x="217.0" y="-79.0" type="curve" smooth="yes"/>
      <point x="217.0" y="-123.0"/>
      <point x="256.0" y="-163.0"/>
      <point x="300.0" y="-163.0" type="curve" smooth="yes"/>
      <point x="344.0" y="-163.0"/>
      <point x="383.0" y="-123.0"/>
      <point x="383.0" y="-79.0" type="curve" smooth="yes"/>
      <point x="383.0" y="-31.0"/>
      <point x="339.646484375" y="-1.306640625"/>
    </contour>
  </outline>
</glyph>
<glyph name="thoth" format="2">
  <advance width="426"/>
  <unicode hex="E656"/>
  <outline>
    <contour>
      <point x="191.0" y="270.0" type="curve" smooth="yes"/>
      <point x="191.0" y="558.0" type="line" smooth="yes"/>
      <point x="191.0" y="630.0"/>
      <point x="138.552734375" y="663.0"/>
      <point x="91.0" y="663.0" type="curve" smooth="yes"/>
      <point x="77.0" y="663.0"/>
      <point x="61.0" y="661.0"/>
      <point x="45.0" y="656.0" type="curve"/>
      <point x="45.0" y="831.0" type="line"/>
      <point x="61.0" y="835.0"/>
      <point x="82.0" y="838.0"/>
      <point x="106.0" y="838.0" type="curve" smooth="yes"/>
      <point x="250.00390625" y="838.0"/>
      <point x="366.0" y="726.0"/>
      <point x="366.0" y="578.0" type="curve" smooth="yes"/>
      <point x="366.0" y="250.0" type="line" smooth="yes"/>
      <point x="366.0" y="102.0"/>
      <point x="250.00390625" y="-10.0"/>
      <point x="106.0" y="-10.0" type="curve" smooth="yes"/>
      <point x="82.0" y="-10.0"/>
      <point x="61.0" y="-7.0"/>
      <point x="45.0" y="-3.0" type="curve"/>
      <point x="45.0" y="172.0" type="line"/>
      <point x="61.0" y="167.0"/>
      <point x="77.0" y="165.0"/>
      <point x="91.0" y="165.0" type="curve" smooth="yes"/>
      <point x="138.552734375" y="165.0"/>
      <point x="191.0" y="198.0"/>
    </contour>
  </outline>
</glyph>
<glyph name="uniE656" format="2">
  <advance width="385"/>
  <unicode hex="E656"/>
  <outline>
    <contour>
      <point x="180.0" y="270.0" type="curve" smooth="yes"/>
      <point x="180.0" y="558.0" type="line" smooth="yes"/>
      <point x="180.0" y="630.0"/>
      <point x="127.552734375" y="663.0"/>
      <point x="80.0" y="663.0" type="curve" smooth="yes"/>
      <point x="66.0" y="663.0"/>
      <point x="50.0" y="661.0"/>
      <point x="34.0" y="656.0" type="curve"/>
      <point x="34.0" y="831.0" type="line"/>
      <point x="50.0" y="835.0"/>
      <point x="71.0" y="838.0"/>
      <point x="95.0" y="838.0" type="curve" smooth="yes"/>
      <point x="239.00390625" y="838.0"/>
      <point x="355.0" y="726.0"/>
      <point x="355.0" y="578.0" type="curve" smooth="yes"/>
      <point x="355.0" y="250.0" type="line" smooth="yes"/>
      <point x="355.0" y="102.0"/>
      <point x="239.00390625" y="-10.0"/>
      <point x="95.0" y="-10.0" type="curve" smooth="yes"/>
      <point x="71.0" y="-10.0"/>
      <point x="50.0" y="-7.0"/>
      <point x="34.0" y="-3.0" type="curve"/>
      <point x="34.0" y="172.0" type="line"/>
      <point x="50.0" y="167.0"/>
      <point x="66.0" y="165.0"/>
      <point x="80.0" y="165.0" type="curve" smooth="yes"/>
      <point x="127.552734375" y="165.0"/>
      <point x="180.0" y="198.0"/>
    </contour>
  </outline>
</glyph>
<glyph name="sis" format="2">
  <advance width="475"/>
  <unicode hex="E65A"/>
  <outline>
    <contour>
      <point x="150.0" y="270.0" type="curve" smooth="yes"/>
      <point x="150.0" y="578.0" type="line" smooth="yes"/>
      <point x="150.0" y="726.0"/>
      <point x="265.99609375" y="838.0"/>
      <point x="410.0" y="838.0" type="curve" smooth="yes"/>
      <point x="434.0" y="838.0"/>
      <point x="455.0" y="835.0"/>
      <point x="471.0" y="831.0" type="curve"/>
      <point x="471.0" y="656.0" type="line"/>
      <point x="455.0" y="661.0"/>
      <point x="439.0" y="663.0"/>
      <point x="425.0" y="663.0" type="curve" smooth="yes"/>
      <point x="377.447265625" y="663.0"/>
      <point x="325.0" y="630.0"/>
      <point x="325.0" y="558.0" type="curve" smooth="yes"/>
      <point x="325.0" y="250.0" type="line" smooth="yes"/>
      <point x="325.0" y="102.0"/>
      <point x="209.00390625" y="-10.0"/>
      <point x="65.0" y="-10.0" type="curve" smooth="yes"/>
      <point x="41.0" y="-10.0"/>
      <point x="20.0" y="-7.0"/>
      <point x="4.0" y="-3.0" type="curve"/>
      <point x="4.0" y="172.0" type="line"/>
      <point x="20.0" y="167.0"/>
      <point x="36.0" y="165.0"/>
      <point x="50.0" y="165.0" type="curve" smooth="yes"/>
      <point x="97.552734375" y="165.0"/>
      <point x="150.0" y="198.0"/>
    </contour>
  </outline>
</glyph>
<glyph name="uniE65A" format="2">
  <advance width="475"/>
  <unicode hex="E65A"/>
  <outline>
    <contour>
      <point x="150.0" y="250.0" type="curve" smooth="yes"/>
      <point x="150.0" y="578.0" type="line" smooth="yes"/>
      <point x="150.0" y="726.0"/>
      <point x="265.99609375" y="838.0"/>
      <point x="410.0" y="838.0" type="curve" smooth="yes"/>
      <point x="434.0" y="838.0"/>
      <point x="455.0" y="835.0"/>
      <point x="471.0" y="831.0" type="curve"/>
      <point x="471.0" y="656.0" type="line"/>
      <point x="456.0" y="661.0"/>
      <point x="438.0" y="663.0"/>
      <point x="425.0" y="663.0" type="curve" smooth="yes"/>
      <point x="345.991210938" y="663.0"/>
      <point x="325.0" y="611.0"/>
      <point x="325.0" y="578.0" type="curve" smooth="yes"/>
      <point x="325.0" y="250.0" type="line" smooth="yes"/>
      <point x="325.0" y="102.0"/>
      <point x="209.00390625" y="-10.0"/>
      <point x="65.0" y="-10.0" type="curve" smooth="yes"/>
      <point x="41.0" y="-10.0"/>
      <point x="20.0" y="-7.0"/>
      <point x="4.0" y="-3.0" type="curve"/>
      <point x="4.0" y="172.0" type="line"/>
      <point x="19.0" y="167.0"/>
      <point x="37.0" y="165.0"/>
      <point x="50.0" y="165.0" type="curve" smooth="yes"/>
      <point x="129.008789062" y="165.0"/>
      <point x="150.0" y="217.0"/>
    </contour>
  </outline>
</glyph>
<glyph name="shush" format="2">
  <advance width="531"/>
  <unicode hex="E65C"/>
  <outline>
    <contour>
      <point x="235.0" y="828.0" type="line"/>
      <point x="235.0" y="310.0" type="line" smooth="yes"/>
      <point x="235.0" y="223.0"/>
      <point x="284.446289062" y="165.0"/>
      <point x="382.0" y="165.0" type="curve" smooth="yes"/>
      <point x="429.010742188" y="165.0"/>
      <point x="450.0" y="169.0"/>
      <point x="486.0" y="187.0" type="curve"/>
      <point x="486.0" y="12.0" type="line"/>
      <point x="453.0" y="-3.0"/>
      <point x="412.0" y="-10.0"/>
      <point x="360.0" y="-10.0" type="curve" smooth="yes"/>
      <point x="188.986328125" y="-10.0"/>
      <point x="60.0" y="121.0"/>
      <point x="60.0" y="286.0" type="curve" smooth="yes"/>
      <point x="60.0" y="828.0" type="line"/>
    </contour>
  </outline>
</glyph>
<glyph name="uniE65D" format="2">
  <advance width="630"/>
  <unicode hex="E65D"/>
  <outline>
    <contour>
      <point x="385.0" y="250.0" type="line" smooth="yes"/>
      <point x="385.0" y="302.0"/>
      <point x="345.553710938" y="335.0"/>
      <point x="278.0" y="335.0" type="curve" smooth="yes"/>
      <point x="242.989257812" y="335.0"/>
      <point x="216.0" y="329.0"/>
      <point x="174.0" y="304.0" type="curve"/>
      <point x="174.0" y="479.0" type="line"/>
      <point x="216.0" y="500.0"/>
      <point x="254.0" y="510.0"/>
      <point x="300.0" y="510.0" type="curve" smooth="yes"/>
      <point x="444.00390625" y="510.0"/>
      <point x="560.0" y="398.0"/>
      <point x="560.0" y="254.0" type="curve" smooth="yes"/>
      <point x="560.0" y="-76.0" type="line" smooth="yes"/>
      <point x="560.0" y="-238.0"/>
      <point x="441.0" y="-338.0"/>
      <point x="310.0" y="-338.0" type="curve" smooth="yes"/>
      <point x="166.0" y="-338.0"/>
      <point x="50.0" y="-221.0"/>
      <point x="50.0" y="-77.0" type="curve" smooth="yes"/>
      <point x="50.0" y="67.0"/>
      <point x="166.0" y="182.0"/>
      <point x="310.0" y="182.0" type="curve" smooth="yes"/>
      <point x="322.482421875" y="182.0"/>
      <point x="334.494140625" y="181.034179688"/>
      <point x="342.0" y="180.166992188" type="curve"/>
      <point x="342.0" y="1.0029296875" type="line"/>
      <point x="330.12109375" y="5.345703125"/>
      <point x="322.01953125" y="7.0"/>
      <point x="310.0" y="7.0" type="curve" smooth="yes"/>
      <point x="261.0" y="7.0"/>
      <point x="225.0" y="-33.0"/>
      <point x="225.0" y="-78.0" type="curve" smooth="yes"/>
      <point x="225.0" y="-122.0"/>
      <point x="260.0" y="-163.0"/>
      <point x="310.0" y="-163.0" type="curve" smooth="yes"/>
      <point x="348.0" y="-163.0"/>
      <point x="385.0" y="-137.0"/>
      <point x="385.0" y="-74.0" type="curve" smooth="yes"/>
    </contour>
  </outline>
</glyph>
<glyph name="zhivago" format="2">
  <advance width="609"/>
  <unicode hex="E65D"/>
  <outline>
    <contour>
      <point x="374.0" y="210.0" type="line" smooth="yes"/>
      <point x="374.0" y="287.0"/>
      <point x="324.553710938" y="335.0"/>
      <point x="247.0" y="335.0" type="curve" smooth="yes"/>
      <point x="199.989257812" y="335.0"/>
      <point x="159.0" y="321.0"/>
      <point x="123.0" y="293.0" type="curve"/>
      <point x="123.0" y="468.0" type="line"/>
      <point x="156.0" y="493.0"/>
      <point x="217.0" y="510.0"/>
      <point x="269.0" y="510.0" type="curve" smooth="yes"/>
      <point x="420.013671875" y="510.0"/>
      <point x="549.0" y="389.0"/>
      <point x="549.0" y="234.0" type="curve" smooth="yes"/>
      <point x="549.0" y="-76.0" type="line" smooth="yes"/>
      <point x="549.0" y="-238.0"/>
      <point x="430.0" y="-338.0"/>
      <point x="299.0" y="-338.0" type="curve" smooth="yes"/>
      <point x="155.0" y="-338.0"/>
      <point x="39.0" y="-221.0"/>
      <point x="39.0" y="-77.0" type="curve" smooth="yes"/>
      <point x="39.0" y="67.0"/>
      <point x="155.0" y="182.0"/>
      <point x="299.0" y="182.0" type="curve" smooth="yes"/>
      <point x="311.482421875" y="182.0"/>
      <point x="323.494140625" y="181.034179688"/>
      <point x="331.0" y="180.166992188" type="curve"/>
      <point x="331.0" y="1.0029296875" type="line"/>
      <point x="319.12109375" y="5.345703125"/>
      <point x="311.01953125" y="7.0"/>
      <point x="299.0" y="7.0" type="curve" smooth="yes"/>
      <point x="250.0" y="7.0"/>
      <point x="214.0" y="-33.0"/>
      <point x="214.0" y="-78.0" type="curve" smooth="yes"/>
      <point x="214.0" y="-122.0"/>
      <point x="249.0" y="-163.0"/>
      <point x="299.0" y="-163.0" type="curve" smooth="yes"/>
      <point x="337.0" y="-163.0"/>
      <point x="374.0" y="-137.0"/>
      <point x="374.0" y="-74.0" type="curve" smooth="yes"/>
    </contour>
  </outline>
</glyph>
<glyph name="church" format="2">
  <advance width="782"/>
  <unicode hex="E65E"/>
  <outline>
    <contour>
      <point x="86.0" y="325.0" type="curve" smooth="yes"/>
      <point x="72.0" y="325.0"/>
      <point x="58.0" y="326.0"/>
      <point x="45.0" y="330.0" type="curve"/>
      <point x="45.0" y="505.0" type="line"/>
      <point x="60.0" y="501.0"/>
      <point x="77.0" y="500.0"/>
      <point x="91.0" y="500.0" type="curve" smooth="yes"/>
      <point x="203.552734375" y="500.0"/>
      <point x="311.0" y="592.959960938"/>
      <point x="311.0" y="720.0" type="curve" smooth="yes"/>
      <point x="311.0" y="763.0" type="line"/>
      <point x="386.0" y="763.0" type="line"/>
      <point x="386.0" y="700.0" type="line" smooth="yes"/>
      <point x="386.0" y="482.0"/>
      <point x="300.00390625" y="325.0"/>
    </contour>
    <contour>
      <point x="486.0" y="828.0" type="line"/>
      <point x="486.0" y="310.0" type="line" smooth="yes"/>
      <point x="486.0" y="223.0"/>
      <point x="535.446289062" y="165.0"/>
      <point x="633.0" y="165.0" type="curve" smooth="yes"/>
      <point x="680.010742188" y="165.0"/>
      <point x="701.0" y="169.0"/>
      <point x="737.0" y="187.0" type="curve"/>
      <point x="737.0" y="12.0" type="line"/>
      <point x="704.0" y="-3.0"/>
      <point x="663.0" y="-10.0"/>
      <point x="611.0" y="-10.0" type="curve" smooth="yes"/>
      <point x="439.986328125" y="-10.0"/>
      <point x="311.0" y="121.0"/>
      <point x="311.0" y="286.0" type="curve" smooth="yes"/>
      <point x="311.0" y="828.0" type="line"/>
    </contour>
  </outline>
</glyph>
<glyph name="uniE65E" format="2">
  <advance width="643"/>
  <unicode hex="E65E"/>
  <outline>
    <contour>
      <point x="67.0" y="325.0" type="curve" smooth="yes"/>
      <point x="53.0" y="325.0"/>
      <point x="39.0" y="326.0"/>
      <point x="26.0" y="330.0" type="curve"/>
      <point x="26.0" y="505.0" type="line"/>
      <point x="41.0" y="501.0"/>
      <point x="58.0" y="500.0"/>
      <point x="72.0" y="500.0" type="curve" smooth="yes"/>
      <point x="184.552734375" y="500.0"/>
      <point x="292.0" y="592.959960938"/>
      <point x="292.0" y="720.0" type="curve" smooth="yes"/>
      <point x="292.0" y="763.0" type="line"/>
      <point x="367.0" y="763.0" type="line"/>
      <point x="367.0" y="700.0" type="line" smooth="yes"/>
      <point x="367.0" y="482.0"/>
      <point x="281.00390625" y="325.0"/>
    </contour>
    <contour>
      <point x="467.0" y="828.0" type="line"/>
      <point x="467.0" y="270.0" type="line" smooth="yes"/>
      <point x="467.0" y="198.0"/>
      <point x="519.447265625" y="165.0"/>
      <point x="567.0" y="165.0" type="curve" smooth="yes"/>
      <point x="581.0" y="165.0"/>
      <point x="597.0" y="167.0"/>
      <point x="613.0" y="172.0" type="curve"/>
      <point x="613.0" y="-3.0" type="line"/>
      <point x="597.0" y="-7.0"/>
      <point x="576.0" y="-10.0"/>
      <point x="552.0" y="-10.0" type="curve" smooth="yes"/>
      <point x="407.99609375" y="-10.0"/>
      <point x="292.0" y="102.0"/>
      <point x="292.0" y="250.0" type="curve" smooth="yes"/>
      <point x="292.0" y="828.0" type="line"/>
    </contour>
  </outline>
</glyph>
<glyph name="haha" format="2">
  <advance width="511"/>
  <unicode hex="E662"/>
  <outline>
    <contour>
      <point x="235.0" y="0.0" type="line"/>
      <point x="60.0" y="0.0" type="line"/>
      <point x="60.0" y="562.0" type="line" smooth="yes"/>
      <point x="60.0" y="722.0"/>
      <point x="183.986328125" y="838.0"/>
      <point x="350.0" y="838.0" type="curve" smooth="yes"/>
      <point x="398.0" y="838.0"/>
      <point x="437.0" y="830.0"/>
      <point x="466.0" y="816.0" type="curve"/>
      <point x="466.0" y="641.0" type="line"/>
      <point x="434.0" y="658.0"/>
      <point x="410.010742188" y="663.0"/>
      <point x="372.0" y="663.0" type="curve" smooth="yes"/>
      <point x="279.446289062" y="663.0"/>
      <point x="235.0" y="620.0"/>
      <point x="235.0" y="538.0" type="curve" smooth="yes"/>
    </contour>
  </outline>
</glyph>
<glyph name="uniE662" format="2">
  <advance width="385"/>
  <unicode hex="E662"/>
  <outline>
    <contour>
      <point x="235.0" y="0.0" type="line"/>
      <point x="60.0" y="0.0" type="line"/>
      <point x="60.0" y="578.0" type="line" smooth="yes"/>
      <point x="60.0" y="726.0"/>
      <point x="175.99609375" y="838.0"/>
      <point x="320.0" y="838.0" type="curve" smooth="yes"/>
      <point x="344.0" y="838.0"/>
      <point x="365.0" y="835.0"/>
      <point x="381.0" y="831.0" type="curve"/>
      <point x="381.0" y="656.0" type="line"/>
      <point x="366.0" y="661.0"/>
      <point x="348.0" y="663.0"/>
      <point x="335.0" y="663.0" type="curve" smooth="yes"/>
      <point x="255.991210938" y="663.0"/>
      <point x="235.0" y="611.0"/>
      <point x="235.0" y="578.0" type="curve" smooth="yes"/>
    </contour>
  </outline>
</glyph>
<glyph name="inkling" format="2">
  <advance width="630"/>
  <unicode hex="E664"/>
  <outline>
    <contour>
      <point x="395.0" y="583.0" type="line" smooth="yes"/>
      <point x="395.0" y="627.0"/>
      <point x="359.0" y="663.0"/>
      <point x="315.0" y="663.0" type="curve" smooth="yes"/>
      <point x="271.0" y="663.0"/>
      <point x="235.0" y="627.0"/>
      <point x="235.0" y="583.0" type="curve" smooth="yes"/>
      <point x="235.0" y="369.0" type="line" smooth="yes"/>
      <point x="235.0" y="325.0"/>
      <point x="271.0" y="289.0"/>
      <point x="315.0" y="289.0" type="curve" smooth="yes"/>
      <point x="359.0" y="289.0"/>
      <point x="395.0" y="325.0"/>
      <point x="395.0" y="369.0" type="curve" smooth="yes"/>
    </contour>
    <contour>
      <point x="60.0" y="588.0" type="line" smooth="yes"/>
      <point x="60.0" y="722.0"/>
      <point x="174.0" y="838.0"/>
      <point x="315.0" y="838.0" type="curve" smooth="yes"/>
      <point x="456.0" y="838.0"/>
      <point x="570.0" y="722.0"/>
      <point x="570.0" y="588.0" type="curve" smooth="yes"/>
      <point x="570.0" y="374.0" type="line" smooth="yes"/>
      <point x="570.0" y="233.0"/>
      <point x="441.0" y="159.0"/>
      <point x="315.0" y="159.0" type="curve" smooth="yes"/>
      <point x="189.0" y="159.0"/>
      <point x="60.0" y="233.0"/>
      <point x="60.0" y="374.0" type="curve" smooth="yes"/>
    </contour>
    <contour>
      <point x="60.0" y="29.0" type="line" smooth="yes"/>
      <point x="60.0" y="170.0"/>
      <point x="189.0" y="244.0"/>
      <point x="315.0" y="244.0" type="curve" smooth="yes"/>
      <point x="441.0" y="244.0"/>
      <point x="570.0" y="170.0"/>
      <point x="570.0" y="29.0" type="curve" smooth="yes"/>
      <point x="570.0" y="0.0" type="line"/>
      <point x="395.0" y="0.0" type="line"/>
      <point x="395.0" y="34.0" type="line" smooth="yes"/>
      <point x="395.0" y="78.0"/>
      <point x="359.0" y="114.0"/>
      <point x="315.0" y="114.0" type="curve" smooth="yes"/>
      <point x="271.0" y="114.0"/>
      <point x="235.0" y="78.0"/>
      <point x="235.0" y="34.0" type="curve" smooth="yes"/>
      <point x="235.0" y="0.0" type="line"/>
      <point x="60.0" y="0.0" type="line"/>
    </contour>
  </outline>
</glyph>
<glyph name="nun" format="2">
  <advance width="572"/>
  <unicode hex="E666"/>
  <outline>
    <contour>
      <point x="235.0" y="494.0" type="line" smooth="yes"/>
      <point x="235.0" y="464.0"/>
      <point x="258.0" y="442.0"/>
      <point x="286.0" y="442.0" type="curve" smooth="yes"/>
      <point x="314.0" y="442.0"/>
      <point x="337.0" y="464.0"/>
      <point x="337.0" y="494.0" type="curve" smooth="yes"/>
      <point x="337.0" y="500.0" type="line"/>
      <point x="512.0" y="500.0" type="line"/>
      <point x="512.0" y="499.0" type="line" smooth="yes"/>
      <point x="512.0" y="358.0"/>
      <point x="392.0" y="312.0"/>
      <point x="286.0" y="312.0" type="curve" smooth="yes"/>
      <point x="180.0" y="312.0"/>
      <point x="60.0" y="358.0"/>
      <point x="60.0" y="499.0" type="curve" smooth="yes"/>
      <point x="60.0" y="500.0" type="line"/>
      <point x="235.0" y="500.0" type="line"/>
    </contour>
    <contour>
      <point x="235.0" y="216.0" type="curve" smooth="yes"/>
      <point x="235.0" y="186.0"/>
      <point x="258.0" y="165.0"/>
      <point x="286.0" y="165.0" type="curve" smooth="yes"/>
      <point x="314.0" y="165.0"/>
      <point x="337.0" y="186.0"/>
      <point x="337.0" y="216.0" type="curve" smooth="yes"/>
      <point x="337.0" y="246.0"/>
      <point x="314.0" y="267.0"/>
      <point x="286.0" y="267.0" type="curve" smooth="yes"/>
      <point x="258.0" y="267.0"/>
      <point x="235.0" y="246.0"/>
    </contour>
    <contour>
      <point x="60.0" y="211.0" type="curve" smooth="yes"/>
      <point x="60.0" y="352.0"/>
      <point x="180.0" y="397.0"/>
      <point x="286.0" y="397.0" type="curve" smooth="yes"/>
      <point x="392.0" y="397.0"/>
      <point x="512.0" y="352.0"/>
      <point x="512.0" y="211.0" type="curve" smooth="yes"/>
      <point x="512.0" y="97.0"/>
      <point x="414.0" y="-10.0"/>
      <point x="286.0" y="-10.0" type="curve" smooth="yes"/>
      <point x="159.0" y="-10.0"/>
      <point x="60.0" y="97.0"/>
    </contour>
  </outline>
</glyph>
<glyph name="loll" format="2">
  <advance width="572"/>
  <unicode hex="E667"/>
  <outline>
    <contour>
      <point x="45.0" y="172.0" type="line"/>
      <point x="60.0" y="167.0"/>
      <point x="78.0" y="165.0"/>
      <point x="91.0" y="165.0" type="curve" smooth="yes"/>
      <point x="160.0" y="165.0"/>
      <point x="205.0" y="211.0"/>
      <point x="205.0" y="290.0" type="curve" smooth="yes"/>
      <point x="205.0" y="303.0"/>
      <point x="203.0" y="321.0"/>
      <point x="198.0" y="336.0" type="curve"/>
      <point x="213.0" y="331.0"/>
      <point x="231.0" y="329.0"/>
      <point x="244.0" y="329.0" type="curve" smooth="yes"/>
      <point x="313.0" y="329.0"/>
      <point x="358.0" y="375.0"/>
      <point x="358.0" y="454.0" type="curve" smooth="yes"/>
      <point x="358.0" y="467.0"/>
      <point x="356.0" y="485.0"/>
      <point x="351.0" y="500.0" type="curve"/>
      <point x="526.0" y="500.0" type="line"/>
      <point x="530.0" y="484.0"/>
      <point x="533.0" y="453.0"/>
      <point x="533.0" y="419.0" type="curve" smooth="yes"/>
      <point x="533.0" y="323.603484093"/>
      <point x="461.640625" y="190.709960938"/>
      <point x="357.684570312" y="190.709960938" type="curve" smooth="yes"/>
      <point x="348.669921875" y="190.709960938"/>
      <point x="346.0" y="191.0"/>
      <point x="338.0" y="193.0" type="curve"/>
      <point x="342.146484375" y="179.22265625"/>
      <point x="342.0703125" y="173.709960938"/>
      <point x="342.0703125" y="161.5625" type="curve" smooth="yes"/>
      <point x="342.0703125" y="63.3212890625"/>
      <point x="218.34389383" y="-10.0"/>
      <point x="126.0" y="-10.0" type="curve" smooth="yes"/>
      <point x="92.0" y="-10.0"/>
      <point x="61.0" y="-7.0"/>
      <point x="45.0" y="-3.0" type="curve"/>
    </contour>
  </outline>
</glyph>
<glyph name="uniE669" format="2">
  <advance width="768"/>
  <unicode hex="E669"/>
  <outline>
    <contour>
      <point x="469.0" y="510.0" type="line" smooth="yes"/>
      <point x="622.0" y="510.0"/>
      <point x="729.0" y="388.0"/>
      <point x="729.0" y="250.0" type="curve" smooth="yes"/>
      <point x="729.0" y="124.0"/>
      <point x="642.0" y="13.0"/>
      <point x="512.0" y="-7.0" type="curve"/>
      <point x="512.0" y="176.0" type="line"/>
      <point x="538.0" y="191.0"/>
      <point x="554.0" y="221.0"/>
      <point x="554.0" y="250.0" type="curve" smooth="yes"/>
      <point x="554.0" y="293.0"/>
      <point x="520.0" y="335.0"/>
      <point x="469.0" y="335.0" type="curve" smooth="yes"/>
    </contour>
    <contour>
      <point x="294.0" y="828.0" type="line"/>
      <point x="469.0" y="828.0" type="line"/>
      <point x="469.0" y="0.0" type="line"/>
      <point x="294.0" y="0.0" type="line"/>
    </contour>
    <contour>
      <point x="294.0" y="335.0" type="line" smooth="yes"/>
      <point x="243.0" y="335.0"/>
      <point x="214.0" y="298.0"/>
      <point x="214.0" y="255.0" type="curve" smooth="yes"/>
      <point x="214.0" y="212.0"/>
      <point x="243.0" y="175.0"/>
      <point x="294.0" y="175.0" type="curve" smooth="yes"/>
      <point x="294.0" y="0.0" type="line" smooth="yes"/>
      <point x="144.0" y="0.0"/>
      <point x="39.0" y="114.0"/>
      <point x="39.0" y="255.0" type="curve" smooth="yes"/>
      <point x="39.0" y="396.0"/>
      <point x="143.0" y="510.0"/>
      <point x="294.0" y="510.0" type="curve" smooth="yes"/>
    </contour>
  </outline>
</glyph>
<glyph name="axe" format="2">
  <advance width="645"/>
  <unicode hex="E66B"/>
  <outline>
    <contour>
      <point x="325.0" y="207.0" type="curve" smooth="yes"/>
      <point x="459.0" y="207.0"/>
      <point x="575.0" y="283.0"/>
      <point x="575.0" y="427.0" type="curve" smooth="yes"/>
      <point x="575.0" y="500.0" type="line"/>
      <point x="400.0" y="500.0" type="line"/>
      <point x="400.0" y="417.0" type="line" smooth="yes"/>
      <point x="400.0" y="372.0"/>
      <point x="363.0" y="342.0"/>
      <point x="325.0" y="342.0" type="curve" smooth="yes"/>
      <point x="287.0" y="342.0"/>
      <point x="250.0" y="372.0"/>
      <point x="250.0" y="417.0" type="curve" smooth="yes"/>
      <point x="250.0" y="828.0" type="line"/>
      <point x="75.0" y="828.0" type="line"/>
      <point x="75.0" y="427.0" type="line" smooth="yes"/>
      <point x="75.0" y="283.0"/>
      <point x="191.0" y="207.0"/>
    </contour>
    <contour>
      <point x="325.0" y="167.0" type="curve" smooth="yes"/>
      <point x="364.0" y="167.0"/>
      <point x="400.0" y="137.0"/>
      <point x="400.0" y="92.0" type="curve" smooth="yes"/>
      <point x="400.0" y="0.0" type="line"/>
      <point x="575.0" y="0.0" type="line"/>
      <point x="575.0" y="82.0" type="line" smooth="yes"/>
      <point x="575.0" y="226.0"/>
      <point x="457.0" y="302.0"/>
      <point x="325.0" y="302.0" type="curve" smooth="yes"/>
      <point x="193.0" y="302.0"/>
      <point x="75.0" y="226.0"/>
      <point x="75.0" y="82.0" type="curve" smooth="yes"/>
      <point x="75.0" y="0.0" type="line"/>
      <point x="250.0" y="0.0" type="line"/>
      <point x="250.0" y="92.0" type="line" smooth="yes"/>
      <point x="250.0" y="137.0"/>
      <point x="286.0" y="167.0"/>
    </contour>
  </outline>
</glyph>
<glyph name="uniE66B" format="2">
  <advance width="645"/>
  <unicode hex="E66B"/>
  <outline>
    <contour>
      <point x="325.0" y="207.0" type="curve" smooth="yes"/>
      <point x="459.0" y="207.0"/>
      <point x="590.0" y="278.0"/>
      <point x="590.0" y="427.0" type="curve" smooth="yes"/>
      <point x="590.0" y="500.0" type="line"/>
      <point x="415.0" y="500.0" type="line"/>
      <point x="415.0" y="427.0" type="line" smooth="yes"/>
      <point x="415.0" y="382.0"/>
      <point x="373.0" y="338.0"/>
      <point x="325.0" y="338.0" type="curve" smooth="yes"/>
      <point x="277.0" y="338.0"/>
      <point x="235.0" y="382.0"/>
      <point x="235.0" y="427.0" type="curve" smooth="yes"/>
      <point x="235.0" y="828.0" type="line"/>
      <point x="60.0" y="828.0" type="line"/>
      <point x="60.0" y="427.0" type="line" smooth="yes"/>
      <point x="60.0" y="278.0"/>
      <point x="191.0" y="207.0"/>
    </contour>
    <contour>
      <point x="325.0" y="171.0" type="curve" smooth="yes"/>
      <point x="374.0" y="171.0"/>
      <point x="415.0" y="127.0"/>
      <point x="415.0" y="82.0" type="curve" smooth="yes"/>
      <point x="415.0" y="0.0" type="line"/>
      <point x="590.0" y="0.0" type="line"/>
      <point x="590.0" y="82.0" type="line" smooth="yes"/>
      <point x="590.0" y="231.0"/>
      <point x="457.0" y="302.0"/>
      <point x="325.0" y="302.0" type="curve" smooth="yes"/>
      <point x="193.0" y="302.0"/>
      <point x="60.0" y="231.0"/>
      <point x="60.0" y="82.0" type="curve" smooth="yes"/>
      <point x="60.0" y="0.0" type="line"/>
      <point x="235.0" y="0.0" type="line"/>
      <point x="235.0" y="82.0" type="line" smooth="yes"/>
      <point x="235.0" y="127.0"/>
      <point x="276.0" y="171.0"/>
    </contour>
  </outline>
</glyph>
<glyph name="qsbracketleft" format="2">
  <advance width="385"/>
  <unicode hex="E66E"/>
  <outline>
    <contour>
      <point x="219.0" y="1003.0" type="line"/>
      <point x="219.0" y="-328.0" type="line"/>
      <point x="365.0" y="-328.0" type="line"/>
      <point x="365.0" y="-503.0" type="line"/>
      <point x="44.0" y="-503.0" type="line"/>
      <point x="44.0" y="1003.0" type="line"/>
    </contour>
  </outline>
</glyph>
<glyph name="uniE670" format="2">
  <advance width="295"/>
  <unicode hex="E670"/>
  <outline>
    <contour>
      <point x="60.0" y="500.0" type="line"/>
      <point x="235.0" y="500.0" type="line"/>
      <point x="235.0" y="0.0" type="line"/>
      <point x="60.0" y="0.0" type="line"/>
    </contour>
  </outline>
</glyph>
<glyph name="age" format="2">
  <advance width="435"/>
  <unicode hex="E673"/>
  <outline>
    <contour>
      <point x="320.0" y="-10.0" type="curve" smooth="yes"/>
      <point x="176.0" y="-10.0"/>
      <point x="60.0" y="102.0"/>
      <point x="60.0" y="250.0" type="curve" smooth="yes"/>
      <point x="60.0" y="346.0" type="line" smooth="yes"/>
      <point x="60.0" y="427.0"/>
      <point x="127.0" y="510.0"/>
      <point x="242.0" y="510.0" type="curve" smooth="yes"/>
      <point x="323.0" y="510.0"/>
      <point x="390.0" y="446.0"/>
      <point x="390.0" y="347.0" type="curve" smooth="yes"/>
      <point x="390.0" y="272.0"/>
      <point x="336.03125" y="223.0"/>
      <point x="267.0" y="223.0" type="curve" smooth="yes"/>
      <point x="264.0" y="223.0"/>
      <point x="259.0" y="224.0"/>
      <point x="257.0" y="225.0" type="curve"/>
      <point x="256.0" y="299.0" type="line"/>
      <point x="260.0" y="298.0"/>
      <point x="262.0" y="298.0"/>
      <point x="264.0" y="298.0" type="curve" smooth="yes"/>
      <point x="286.0" y="298.0"/>
      <point x="315.0" y="314.0"/>
      <point x="315.0" y="349.0" type="curve" smooth="yes"/>
      <point x="315.0" y="380.016601562"/>
      <point x="291.0" y="400.0"/>
      <point x="264.0" y="400.0" type="curve" smooth="yes"/>
      <point x="232.983398438" y="400.0"/>
      <point x="213.0" y="376.0"/>
      <point x="213.0" y="348.0" type="curve" smooth="yes"/>
      <point x="213.0" y="270.0" type="line" smooth="yes"/>
      <point x="213.0" y="202.09375"/>
      <point x="270.0" y="165.0"/>
      <point x="326.0" y="165.0" type="curve" smooth="yes"/>
      <point x="350.0" y="165.0"/>
      <point x="365.0" y="167.0"/>
      <point x="381.0" y="172.0" type="curve"/>
      <point x="381.0" y="-3.0" type="line"/>
      <point x="365.0" y="-7.0"/>
      <point x="344.0" y="-10.0"/>
    </contour>
  </outline>
</glyph>
<glyph name="uniE673" format="2">
  <advance width="426"/>
  <unicode hex="E673"/>
  <outline>
    <contour>
      <point x="320.0" y="-10.0" type="curve" smooth="yes"/>
      <point x="176.0" y="-10.0"/>
      <point x="60.0" y="102.0"/>
      <point x="60.0" y="250.0" type="curve" smooth="yes"/>
      <point x="60.0" y="345.0" type="line" smooth="yes"/>
      <point x="60.0" y="436.0"/>
      <point x="134.0" y="510.0"/>
      <point x="225.0" y="510.0" type="curve" smooth="yes"/>
      <point x="316.0" y="510.0"/>
      <point x="390.0" y="436.0"/>
      <point x="390.0" y="345.0" type="curve" smooth="yes"/>
      <point x="390.0" y="254.0"/>
      <point x="316.0" y="180.0"/>
      <point x="225.0" y="180.0" type="curve" smooth="yes"/>
      <point x="223.0" y="180.0"/>
      <point x="222.0" y="180.0"/>
      <point x="220.0" y="180.0" type="curve" smooth="yes"/>
      <point x="220.0" y="297.0" type="line"/>
      <point x="222.0" y="297.0"/>
      <point x="223.0" y="297.0"/>
      <point x="225.0" y="297.0" type="curve" smooth="yes"/>
      <point x="251.0" y="297.0"/>
      <point x="273.0" y="319.0"/>
      <point x="273.0" y="345.0" type="curve" smooth="yes"/>
      <point x="273.0" y="371.0"/>
      <point x="251.0" y="393.0"/>
      <point x="225.0" y="393.0" type="curve" smooth="yes"/>
      <point x="199.0" y="393.0"/>
      <point x="177.0" y="371.0"/>
      <point x="177.0" y="345.0" type="curve" smooth="yes"/>
      <point x="177.0" y="240.0" type="line" smooth="yes"/>
      <point x="177.0" y="168.0"/>
      <point x="227.0" y="127.0"/>
      <point x="325.0" y="127.0" type="curve" smooth="yes"/>
      <point x="349.0" y="127.0"/>
      <point x="365.0" y="129.0"/>
      <point x="381.0" y="134.0" type="curve"/>
      <point x="381.0" y="-3.0" type="line"/>
      <point x="365.0" y="-7.0"/>
      <point x="344.0" y="-10.0"/>
    </contour>
  </outline>
</glyph>
<glyph name="uniE679" format="2">
  <advance width="426"/>
  <unicode hex="E679"/>
  <outline>
    <contour>
      <point x="390.0" y="0.0" type="line"/>
      <point x="390.0" y="346.0" type="line" smooth="yes"/>
      <point x="390.0" y="427.0"/>
      <point x="323.0" y="510.0"/>
      <point x="208.0" y="510.0" type="curve" smooth="yes"/>
      <point x="127.0" y="510.0"/>
      <point x="60.0" y="446.0"/>
      <point x="60.0" y="347.0" type="curve" smooth="yes"/>
      <point x="60.0" y="272.0"/>
      <point x="113.96875" y="223.0"/>
      <point x="183.0" y="223.0" type="curve" smooth="yes"/>
      <point x="186.0" y="223.0"/>
      <point x="191.0" y="224.0"/>
      <point x="193.0" y="225.0" type="curve"/>
      <point x="194.0" y="299.0" type="line"/>
      <point x="190.0" y="298.0"/>
      <point x="188.0" y="298.0"/>
      <point x="186.0" y="298.0" type="curve" smooth="yes"/>
      <point x="164.0" y="298.0"/>
      <point x="135.0" y="314.0"/>
      <point x="135.0" y="349.0" type="curve" smooth="yes"/>
      <point x="135.0" y="380.016601562"/>
      <point x="159.0" y="400.0"/>
      <point x="186.0" y="400.0" type="curve" smooth="yes"/>
      <point x="217.016601562" y="400.0"/>
      <point x="237.0" y="376.0"/>
      <point x="237.0" y="348.0" type="curve" smooth="yes"/>
      <point x="237.0" y="0.0" type="line"/>
    </contour>
  </outline>
</glyph>
<glyph name=".notdef" format="2">
  <advance width="652"/>
  <outline>
    <contour>
      <point x="560.0" y="753.0" type="line"/>
      <point x="163.0" y="30.0" type="line"/>
      <point x="89.0" y="76.0" type="line"/>
      <point x="486.0" y="799.0" type="line"/>
    </contour>
    <contour>
      <point x="89.0" y="753.0" type="line"/>
      <point x="163.0" y="799.0" type="line"/>
      <point x="560.0" y="76.0" type="line"/>
      <point x="486.0" y="30.0" type="line"/>
    </contour>
    <contour>
      <point x="158.0" y="740.0" type="line"/>
      <point x="158.0" y="88.0" type="line"/>
      <point x="494.0" y="88.0" type="line"/>
      <point x="494.0" y="740.0" type="line"/>
    </contour>
    <contour>
      <point x="70.0" y="828.0" type="line"/>
      <point x="582.0" y="828.0" type="line"/>
      <point x="582.0" y="0.0" type="line"/>
      <point x="70.0" y="0.0" type="line"/>
    </contour>
  </outline>
</glyph>
<glyph name="age.alt" format="2">
  <advance width="619"/>
  <outline>
    <contour>
      <point x="309.0" y="175.0" type="curve" smooth="yes"/>
      <point x="569.0" y="175.0" type="line"/>
      <point x="569.0" y="0.0" type="line"/>
      <point x="309.0" y="0.0" type="line" smooth="yes"/>
      <point x="159.0" y="0.0"/>
      <point x="49.0" y="109.0"/>
      <point x="49.0" y="250.0" type="curve" smooth="yes"/>
      <point x="49.0" y="500.0" type="line"/>
      <point x="224.0" y="500.0" type="line"/>
      <point x="224.0" y="496.50390625" type="line"/>
      <point x="224.0" y="255.0" type="line" smooth="yes"/>
      <point x="224.0" y="217.0"/>
      <point x="258.0" y="175.0"/>
    </contour>
    <contour>
      <point x="267.0" y="506.836914062" type="line"/>
      <point x="280.579101562" y="508.91796875"/>
      <point x="294.598632812" y="510.0"/>
      <point x="309.0" y="510.0" type="curve" smooth="yes"/>
      <point x="462.0" y="510.0"/>
      <point x="569.0" y="388.0"/>
      <point x="569.0" y="250.0" type="curve" smooth="yes"/>
      <point x="569.0" y="239.0"/>
      <point x="568.0" y="229.0"/>
      <point x="567.0" y="218.0" type="curve"/>
      <point x="388.0" y="218.0" type="line"/>
      <point x="392.0" y="228.0"/>
      <point x="394.0" y="239.0"/>
      <point x="394.0" y="250.0" type="curve" smooth="yes"/>
      <point x="394.0" y="293.0"/>
      <point x="360.0" y="335.0"/>
      <point x="309.0" y="335.0" type="curve" smooth="yes"/>
      <point x="293.200195312" y="335.0"/>
      <point x="279.03125" y="330.96875"/>
      <point x="267.0" y="324.274414062" type="curve"/>
    </contour>
  </outline>
</glyph>
